<?xml version="1.0" encoding="utf-8"?>
<!-- Generator: Adobe Illustrator 16.0.0, SVG Export Plug-In . SVG Version: 6.00 Build 0)  -->
<!DOCTYPE svg PUBLIC "-//W3C//DTD SVG 1.1//EN" "http://www.w3.org/Graphics/SVG/1.1/DTD/svg11.dtd">
<svg version="1.1" id="Capa_1" xmlns="http://www.w3.org/2000/svg" xmlns:xlink="http://www.w3.org/1999/xlink" x="0px" y="0px"
	 width="141.732px" height="141.732px" viewBox="0 0 141.732 141.732" enable-background="new 0 0 141.732 141.732"
	 xml:space="preserve">
<g>
	<path fill="#FFFFFF" d="M138.242,70.866c0-37.21-30.165-67.376-67.376-67.376S3.49,33.656,3.49,70.866
		c0,37.211,30.165,67.376,67.376,67.376S138.242,108.077,138.242,70.866"/>
	<path fill="#5E59FA" d="M49.53,66.473c0.077,0.396,0.423,0.682,0.826,0.682h7.175l-0.146,23.817
		c-0.003,0.463,0.372,0.842,0.836,0.845h0.005h27.894c0.464,0,0.841-0.377,0.841-0.841v-0.004l-0.146-23.817h7.174
		c0.402-0.001,0.749-0.286,0.824-0.682l1.816-9.394c0.083-0.427-0.173-0.845-0.589-0.967l-16.037-4.674
		c-0.19,0.007-0.379-0.005-0.567-0.033c-0.248,0-0.481,0.111-0.64,0.302c-4.261,1.546-8.926,1.564-13.198,0.054
		c-0.157-0.223-0.414-0.355-0.685-0.355c-0.064,0-0.126,0.008-0.188,0.022c-0.125-0.026-0.254-0.022-0.378,0.011L48.31,56.112
		c-0.416,0.122-0.672,0.54-0.59,0.967L49.53,66.473z M78.356,53.62c-0.745,2.209-3.233,3.839-6.187,3.839
		c-2.925,0-5.395-1.598-6.166-3.773c4.032,1.211,8.334,1.188,12.353-0.068V53.62z M64.161,53.243
		c0.57,3.329,3.939,5.897,8.008,5.897c4.069,0,7.438-2.568,8.008-5.898l14.65,4.271l-1.538,7.959h-7.324
		c-0.465,0-0.841,0.376-0.841,0.84v0.005l0.146,23.817H59.068l0.146-23.817c0.003-0.464-0.372-0.843-0.836-0.845h-0.005H51.05
		l-1.538-7.959L64.161,53.243z"/>
	<path fill="#5E59FA" d="M36.266,73.885l4.137-4.137c0.363-0.375,0.354-0.973-0.021-1.338c-0.367-0.354-0.949-0.354-1.316,0
		l-4.805,4.806c-0.369,0.369-0.369,0.969,0,1.338l4.817,4.817c0.369,0.369,0.969,0.369,1.338-0.001
		c0.369-0.369,0.369-0.967-0.002-1.338L36.266,73.885z"/>
	<path fill="#5E59FA" d="M104.846,68.41c-0.376-0.363-0.976-0.354-1.338,0.022c-0.355,0.367-0.355,0.95,0,1.315l4.146,4.147
		l-4.136,4.137c-0.37,0.37-0.37,0.969-0.001,1.338c0.37,0.37,0.969,0.37,1.338,0.001l4.806-4.807c0.369-0.369,0.369-0.967,0-1.337
		L104.846,68.41z"/>
	<path fill="none" stroke="#5E59FA" stroke-width="2" stroke-miterlimit="10" d="M107.026,109.914H35.358
		c-5.191,0-9.4-4.209-9.4-9.399V42.69c0-5.191,4.209-9.4,9.4-9.4h71.668c5.191,0,9.4,4.209,9.4,9.4v57.824
		C116.427,105.705,112.218,109.914,107.026,109.914z"/>
	<path fill="#5E59FA" d="M34.383,40.954c-0.926,0-1.676,0.75-1.676,1.676s0.75,1.677,1.676,1.676c0.926,0,1.676-0.75,1.676-1.676
		S35.309,40.954,34.383,40.954"/>
	<path fill="#5E59FA" d="M42.683,42.632c0-0.926-0.75-1.676-1.676-1.676s-1.676,0.75-1.676,1.676c0,0.925,0.75,1.676,1.676,1.676
		S42.683,43.557,42.683,42.632"/>
	<path fill="#5E59FA" d="M47.626,44.31c0.926,0,1.676-0.75,1.676-1.676s-0.75-1.676-1.676-1.676s-1.676,0.75-1.676,1.676
		S46.7,44.31,47.626,44.31"/>
</g>
</svg>
