<?xml version="1.0" encoding="utf-8"?>
<!-- Generator: Adobe Illustrator 16.0.0, SVG Export Plug-In . SVG Version: 6.00 Build 0)  -->
<!DOCTYPE svg PUBLIC "-//W3C//DTD SVG 1.1//EN" "http://www.w3.org/Graphics/SVG/1.1/DTD/svg11.dtd">
<svg version="1.1" id="Capa_1" xmlns="http://www.w3.org/2000/svg" xmlns:xlink="http://www.w3.org/1999/xlink" x="0px" y="0px"
	 width="78.667px" height="109.667px" viewBox="0 0 78.667 109.667" enable-background="new 0 0 78.667 109.667"
	 xml:space="preserve">
<g>
	<path fill="#67B6ED" d="M50.574,27.956c0.553,0.554,1.45,0.554,2.005,0l13.053-13.052c0.553-0.554,0.553-1.452,0-2.005
		c-0.553-0.552-1.451-0.552-2.007,0L50.574,25.952C50.021,26.505,50.021,27.402,50.574,27.956"/>
	<path fill="#67B6ED" d="M49.186,18.888c0.301-0.724-0.041-1.553-0.765-1.854c-0.722-0.301-1.553,0.042-1.853,0.765l-1.997,4.797
		c-0.229,0.546-0.088,1.153,0.307,1.547c0.128,0.128,0.28,0.234,0.457,0.307c0.722,0.301,1.552-0.041,1.853-0.766L49.186,18.888z"/>
	<path fill="#67B6ED" d="M49.668,10.353c-0.228,0.546-0.089,1.153,0.307,1.548c0.126,0.128,0.281,0.231,0.456,0.307
		c0.724,0.3,1.555-0.042,1.854-0.765l1.996-4.8c0.302-0.722-0.04-1.551-0.764-1.852c-0.722-0.302-1.553,0.041-1.853,0.765
		L49.668,10.353z"/>
	<path fill="#67B6ED" d="M37.742,21.78c-0.002,0.396,0.158,0.749,0.414,1.007c0.256,0.257,0.608,0.414,0.998,0.416
		c0.783,0.003,1.418-0.63,1.422-1.412l0.065-18.459c0-0.783-0.63-1.42-1.413-1.423c-0.782-0.003-1.419,0.63-1.423,1.412
		L37.742,21.78z"/>
	<path fill="#67B6ED" d="M33.743,22.558l-1.964-4.811c-0.294-0.726-1.123-1.072-1.849-0.777c-0.725,0.296-1.072,1.123-0.776,1.849
		l1.964,4.811c0.073,0.18,0.182,0.339,0.31,0.468c0.392,0.393,0.994,0.53,1.538,0.311C33.691,24.11,34.039,23.284,33.743,22.558"/>
	<path fill="#67B6ED" d="M24.145,6.538l1.963,4.813c0.073,0.179,0.179,0.337,0.308,0.466c0.393,0.392,0.995,0.533,1.541,0.31
		c0.725-0.294,1.07-1.123,0.775-1.848l-1.963-4.811c-0.297-0.725-1.124-1.073-1.848-0.777C24.194,4.985,23.849,5.813,24.145,6.538"
		/>
	<path fill="#67B6ED" d="M23.408,31.231l-4.786-2.029c-0.719-0.306-1.551,0.03-1.857,0.75c-0.232,0.549-0.094,1.16,0.304,1.557
		c0.125,0.125,0.276,0.229,0.448,0.304l4.783,2.028c0.721,0.307,1.553-0.03,1.857-0.749C24.464,32.369,24.127,31.539,23.408,31.231"
		/>
	<path fill="#67B6ED" d="M11.199,26.052l-4.783-2.031c-0.721-0.306-1.553,0.03-1.858,0.75c-0.232,0.549-0.094,1.16,0.303,1.559
		c0.125,0.124,0.277,0.227,0.449,0.301l4.782,2.029c0.722,0.307,1.554-0.03,1.858-0.749C12.257,27.188,11.921,26.354,11.199,26.052"
		/>
	<path fill="#67B6ED" d="M24.029,45.459c-0.292-0.724-1.115-1.079-1.843-0.789l-4.825,1.931c-0.728,0.291-1.08,1.114-0.791,1.843
		c0.075,0.183,0.184,0.345,0.315,0.476c0.388,0.388,0.986,0.53,1.528,0.313l4.825-1.93C23.968,47.012,24.319,46.188,24.029,45.459"
		/>
	<path fill="#67B6ED" d="M11.716,50.385c-0.293-0.725-1.115-1.08-1.844-0.791l-4.825,1.932c-0.728,0.291-1.08,1.115-0.79,1.843
		c0.074,0.183,0.183,0.344,0.314,0.475c0.388,0.39,0.986,0.53,1.528,0.315l4.825-1.932C11.653,51.938,12.005,51.112,11.716,50.385"
		/>
	<path fill="#67B6ED" d="M59.428,49.947c0.716,0.317,1.554-0.008,1.869-0.725c0.317-0.716-0.011-1.554-0.726-1.868l-4.754-2.097
		c-0.717-0.316-1.555,0.008-1.87,0.723c-0.243,0.553-0.106,1.175,0.294,1.577c0.122,0.12,0.268,0.221,0.432,0.292L59.428,49.947z"/>
	<path fill="#67B6ED" d="M66.377,52.908c0.12,0.12,0.265,0.224,0.43,0.294l4.756,2.099c0.716,0.314,1.553-0.01,1.868-0.726
		c0.316-0.717-0.01-1.555-0.726-1.87l-4.755-2.096c-0.717-0.315-1.553,0.008-1.867,0.725C65.838,51.886,65.975,52.509,66.377,52.908
		"/>
	<path fill="#67B6ED" d="M54.25,33.616c0.073,0.192,0.183,0.356,0.32,0.494c0.384,0.384,0.974,0.528,1.511,0.321l4.853-1.861
		c0.729-0.282,1.094-1.101,0.815-1.833c-0.282-0.726-1.102-1.096-1.832-0.814l-4.852,1.862
		C54.336,32.065,53.969,32.888,54.25,33.616"/>
	<path fill="#67B6ED" d="M66.631,28.863c0.073,0.191,0.184,0.356,0.32,0.493c0.384,0.384,0.972,0.529,1.51,0.321l4.854-1.861
		c0.729-0.28,1.094-1.099,0.815-1.831c-0.28-0.728-1.102-1.096-1.831-0.814l-4.853,1.861C66.717,27.313,66.35,28.135,66.631,28.863"
		/>
	<path fill="#67B6ED" d="M27.622,27.956c0.554-0.554,0.554-1.451,0-2.004L14.569,12.899c-0.555-0.552-1.452-0.552-2.006,0
		c-0.552,0.553-0.552,1.451,0,2.005l13.054,13.052C26.171,28.51,27.069,28.51,27.622,27.956"/>
	<path fill="#67B6ED" d="M22.867,39.433c0-0.783-0.633-1.417-1.416-1.417H2.993c-0.785,0-1.419,0.634-1.419,1.417
		c0,0.392,0.16,0.746,0.416,1.002s0.61,0.416,1.003,0.416h18.458C22.234,40.851,22.867,40.215,22.867,39.433"/>
	<path fill="#67B6ED" d="M27.621,50.908c-0.553-0.553-1.45-0.553-2.004,0L12.564,63.96c-0.553,0.555-0.553,1.453,0,2.008
		c0.554,0.552,1.45,0.552,2.005,0l13.052-13.055C28.174,52.36,28.176,51.462,27.621,50.908"/>
	<path fill="#67B6ED" d="M55.742,40.435C56,40.69,56.354,40.85,56.745,40.85h18.458c0.783,0,1.418-0.636,1.418-1.417
		c0-0.783-0.635-1.417-1.418-1.417H56.745c-0.782-0.002-1.417,0.634-1.417,1.417C55.328,39.825,55.486,40.179,55.742,40.435"/>
	<path fill="#FFFFFF" d="M66.596,59.676c-1.414-0.05-2.756,0.399-3.838,1.273c-0.593-2.51-2.796-4.442-5.413-4.535
		c-1.412-0.05-2.754,0.4-3.836,1.273c-0.593-2.509-2.797-4.442-5.414-4.532c-1.343-0.048-2.625,0.355-3.68,1.148V40.936
		c0-3.137-2.498-5.778-5.571-5.888c-1.586-0.055-3.083,0.521-4.224,1.618c-1.139,1.098-1.765,2.577-1.765,4.16v27.435
		c-0.476-0.547-1.053-1.001-1.714-1.344c-1.373-0.71-2.938-0.843-4.409-0.373c-1.472,0.467-2.674,1.481-3.382,2.854
		c-0.71,1.37-0.841,2.937-0.373,4.408c0,0,3.746,11.767,5.225,16.392c0.22,0.688,0.431,1.399,0.633,2.087
		c0.078,0.265,0.155,0.532,0.234,0.796c1.254,4.204,3.881,7.984,7.396,10.645c3.634,2.752,7.971,4.205,12.54,4.205h2.354
		c11.473,0,20.808-9.334,20.808-20.808V65.564C72.167,62.427,69.668,59.784,66.596,59.676"/>
	<path fill="#3C3D5F" d="M66.595,59.677c-1.412-0.052-2.754,0.397-3.836,1.272c-0.594-2.51-2.795-4.442-5.414-4.534
		c-1.412-0.05-2.755,0.397-3.836,1.273c-0.592-2.51-2.797-4.442-5.413-4.535c-1.345-0.047-2.627,0.359-3.679,1.151V40.937
		c0-3.138-2.5-5.778-5.571-5.89c-1.588-0.055-3.085,0.52-4.225,1.618c-1.14,1.101-1.766,2.578-1.766,4.16v27.436
		c-0.476-0.546-1.053-1.001-1.714-1.345c-1.373-0.71-2.938-0.841-4.409-0.373c-1.472,0.471-2.674,1.482-3.381,2.854
		c-0.71,1.373-0.842,2.938-0.375,4.411c0,0,3.747,11.764,5.226,16.39c0.222,0.69,0.43,1.401,0.633,2.088
		c0.077,0.265,0.156,0.53,0.234,0.795c1.255,4.203,3.882,7.982,7.396,10.646c3.635,2.751,7.971,4.204,12.539,4.204h2.354
		c11.474,0,20.808-9.334,20.808-20.808V65.565C72.167,62.428,69.667,59.785,66.595,59.677 M69.854,87.122
		c0,10.198-8.295,18.496-18.494,18.496h-2.354c-8.113,0-15.4-5.428-17.718-13.199l-0.234-0.789
		c-0.205-0.698-0.419-1.425-0.648-2.136c-1.477-4.625-5.223-16.39-5.223-16.39c-0.282-0.883-0.203-1.822,0.223-2.646
		c0.426-0.821,1.146-1.431,2.028-1.712c0.351-0.11,0.703-0.163,1.052-0.163c1.47,0,2.838,0.943,3.308,2.418l1.112,3.494
		c0.169,0.535,0.702,0.869,1.257,0.794c0.015-0.001,0.033-0.005,0.047-0.006c0.555-0.096,0.957-0.576,0.957-1.14V40.825
		c0-0.95,0.379-1.837,1.063-2.495c0.683-0.659,1.583-1.005,2.535-0.971c1.844,0.067,3.341,1.67,3.341,3.577v17.995v11.134
		c0,0.638,0.519,1.155,1.156,1.155c0.639,0,1.157-0.518,1.157-1.155V58.932c0-0.952,0.375-1.836,1.06-2.497
		c0.683-0.659,1.585-1.004,2.537-0.97c1.842,0.065,3.339,1.67,3.339,3.575v3.152v10.166c0,0.638,0.519,1.155,1.158,1.155
		c0.639,0,1.156-0.518,1.156-1.155V62.192c0-0.951,0.375-1.836,1.061-2.497c0.684-0.66,1.583-1.003,2.535-0.97
		c1.842,0.064,3.342,1.67,3.342,3.577v3.149v8.566c0,0.637,0.519,1.155,1.156,1.155c0.637,0,1.156-0.519,1.156-1.155v-8.566
		c0-0.949,0.375-1.836,1.061-2.495c0.683-0.66,1.583-1.004,2.537-0.971c1.842,0.066,3.339,1.671,3.339,3.579V87.122z"/>
</g>
</svg>
