<?xml version="1.0" encoding="utf-8"?>
<!-- Generator: Adobe Illustrator 16.0.0, SVG Export Plug-In . SVG Version: 6.00 Build 0)  -->
<!DOCTYPE svg PUBLIC "-//W3C//DTD SVG 1.1//EN" "http://www.w3.org/Graphics/SVG/1.1/DTD/svg11.dtd">
<svg version="1.1" id="Capa_1" xmlns="http://www.w3.org/2000/svg" xmlns:xlink="http://www.w3.org/1999/xlink" x="0px" y="0px"
	 width="65.259px" height="64.849px" viewBox="0 0 65.259 64.849" enable-background="new 0 0 65.259 64.849" xml:space="preserve">
<g>
	<path fill="#FFFFFF" d="M63.758,32.424c0-17.191-13.938-31.128-31.129-31.128S1.501,15.233,1.501,32.424
		s13.937,31.128,31.128,31.128S63.758,49.616,63.758,32.424"/>
	<path fill="#5E59FA" d="M33.06,29.513c-4.927,0-8.937-4.007-8.937-8.934s4.01-8.933,8.937-8.933c4.926,0,8.934,4.006,8.934,8.933
		S37.985,29.513,33.06,29.513 M33.06,13.878c-3.695,0-6.703,3.005-6.703,6.701c0,3.695,3.008,6.699,6.703,6.699
		c3.694,0,6.701-3.004,6.701-6.699C39.761,16.883,36.754,13.878,33.06,13.878"/>
	<path fill="#5E59FA" d="M49.896,47.553H16.22c-0.616,0-1.115-0.499-1.115-1.115c0-7.136,4.233-13.596,10.784-16.456
		c0.512-0.228,1.119-0.031,1.407,0.455c1.222,2.063,3.376,3.297,5.764,3.297c2.386,0,4.54-1.233,5.765-3.297
		c0.287-0.486,0.893-0.679,1.405-0.455c6.552,2.86,10.783,9.32,10.783,16.456C51.013,47.054,50.515,47.553,49.896,47.553
		 M17.376,45.323h31.365c-0.39-5.497-3.639-10.396-8.567-12.898c-1.677,2.205-4.32,3.543-7.114,3.543s-5.437-1.338-7.115-3.543
		C21.017,34.926,17.766,39.826,17.376,45.323"/>
</g>
</svg>
