<?xml version="1.0" encoding="utf-8"?>
<!-- Generator: Adobe Illustrator 16.0.0, SVG Export Plug-In . SVG Version: 6.00 Build 0)  -->
<!DOCTYPE svg PUBLIC "-//W3C//DTD SVG 1.1//EN" "http://www.w3.org/Graphics/SVG/1.1/DTD/svg11.dtd">
<svg version="1.1" id="Capa_1" xmlns="http://www.w3.org/2000/svg" xmlns:xlink="http://www.w3.org/1999/xlink" x="0px" y="0px"
	 width="208px" height="205.51px" viewBox="0 0 208 205.51" enable-background="new 0 0 208 205.51" xml:space="preserve">
<path fill="#6160F6" d="M203.172,102.618c0-54.616-44.275-98.892-98.892-98.892c-54.616,0-98.891,44.276-98.891,98.892
	c0,54.616,44.275,98.893,98.891,98.893C158.897,201.51,203.172,157.234,203.172,102.618"/>
<path fill="#FFFFFF" d="M76.229,55.242c-0.771,0-1.396,0.625-1.396,1.396c0,0.772,0.625,1.397,1.396,1.397s1.396-0.625,1.396-1.397
	C77.625,55.867,77,55.242,76.229,55.242"/>
<path fill="#FFFFFF" d="M81.741,55.242c-0.771,0-1.396,0.625-1.396,1.396c0,0.772,0.625,1.397,1.396,1.397s1.396-0.625,1.396-1.397
	C83.137,55.867,82.512,55.242,81.741,55.242"/>
<path fill="#FFFFFF" d="M85.855,56.638c0,0.771,0.625,1.396,1.396,1.396s1.396-0.625,1.396-1.396c0-0.771-0.625-1.396-1.396-1.396
	S85.855,55.868,85.855,56.638"/>
<path fill="#FFFFFF" d="M147.906,104.01c-1.25,0-2.263,1.013-2.262,2.262c0,1.25,1.013,2.263,2.263,2.263s2.263-1.013,2.263-2.263
	C150.168,105.022,149.155,104.011,147.906,104.01 M147.906,107c-0.402,0-0.729-0.326-0.729-0.729
	c0.001-0.403,0.328-0.729,0.73-0.729c0.402,0.001,0.728,0.326,0.728,0.729C148.635,106.675,148.309,107,147.906,107"/>
<path fill="#FFFFFF" d="M153.413,104.01c-1.25,0-2.263,1.012-2.263,2.262s1.013,2.263,2.263,2.263s2.263-1.013,2.263-2.263
	C155.674,105.022,154.662,104.011,153.413,104.01 M153.413,107c-0.403,0-0.729-0.326-0.729-0.729c0-0.403,0.326-0.729,0.729-0.729
	c0.402,0,0.729,0.326,0.729,0.729C154.142,106.675,153.815,107,153.413,107"/>
<path fill="#FFFFFF" d="M116.938,135.258c0.424,0,0.767-0.343,0.767-0.767c0-0.423-0.343-0.766-0.767-0.766H87.081
	c-0.423,0-0.767,0.343-0.767,0.766c0,0.424,0.344,0.767,0.767,0.767H116.938z"/>
<path fill="#FFFFFF" d="M122.536,140.006H81.482c-0.424,0-0.767,0.345-0.767,0.768s0.343,0.766,0.767,0.766h41.054
	c0.423,0,0.767-0.343,0.767-0.766S122.959,140.006,122.536,140.006"/>
<path fill="#FFFFFF" d="M105.901,150.719l-0.936,1.052l-4.577,5.148l-2.577-2.576l-0.256-0.256c-0.299-0.3-0.785-0.3-1.084,0
	c-0.3,0.299-0.3,0.784-0.001,1.084l3.409,3.407c0.143,0.145,0.338,0.225,0.542,0.225h0.022c0.211-0.005,0.41-0.098,0.55-0.255
	l6.054-6.808c0.282-0.317,0.253-0.801-0.063-1.083c-0.317-0.282-0.801-0.253-1.083,0.063V150.719z"/>
<path fill="#FFFFFF" d="M102.008,146.298c-4.664,0-8.444,3.78-8.444,8.443c-0.001,4.663,3.778,8.444,8.442,8.444
	c4.663,0.001,8.443-3.778,8.444-8.442v-0.001C110.445,150.083,106.668,146.304,102.008,146.298 M102.008,161.651
	c-3.816,0.001-6.91-3.092-6.911-6.908c-0.001-3.817,3.093-6.91,6.909-6.911c3.815,0,6.91,3.092,6.91,6.909v0.001
	C108.912,158.556,105.821,161.646,102.008,161.651"/>
<path fill="#FFFFFF" d="M167.603,71.702h-5.499c-0.424,0-0.767,0.343-0.767,0.767v1.529h-19.663v-2.135
	c0-0.045-0.005-0.09-0.013-0.135V71.71c-0.012-0.058-0.031-0.114-0.057-0.167c0-0.005-0.002-0.011-0.004-0.016l-5.31-10.947
	c-0.026-0.052-0.059-0.1-0.097-0.144V48.336c-0.004-3.81-3.092-6.897-6.902-6.901H74.726c-3.811,0.004-6.898,3.092-6.902,6.901
	v12.59l-7.311,10.497v0.004c-0.036,0.053-0.065,0.109-0.087,0.17c-0.004,0.012-0.008,0.026-0.012,0.04
	c-0.015,0.048-0.025,0.098-0.03,0.149c0,0.014-0.004,0.029-0.005,0.043c-0.001,0.015-0.003,0.023-0.003,0.033v5.557
	c0.023,4.087,3.332,7.396,7.419,7.413h0.03v79.879c0.004,3.812,3.091,6.898,6.901,6.902h54.565c3.81-0.004,6.898-3.091,6.902-6.902
	V84.564c2.352-0.656,4.238-2.414,5.056-4.715h3.187c-0.08,0.123-0.123,0.267-0.123,0.415v8.429
	c-6.338,3.46-8.672,11.405-5.212,17.743c3.461,6.339,11.405,8.672,17.743,5.211c6.339-3.46,8.672-11.404,5.211-17.743
	c-1.123-2.057-2.778-3.774-4.793-4.972v-8.668c0-0.148-0.043-0.292-0.123-0.415h4.2v1.925c0,0.422,0.344,0.766,0.767,0.766h5.498
	c0.423,0,0.767-0.344,0.767-0.766v-9.306C168.371,72.044,168.027,71.701,167.603,71.702z M139.609,79.849
	c-0.675,1.453-1.906,2.575-3.416,3.112c-0.494,0.176-1.01,0.282-1.534,0.318c-0.129,0.01-0.255,0.021-0.387,0.022
	c-3.24-0.024-5.861-2.645-5.886-5.884v-4.788h11.756v4.788c0,0.037,0.002,0.076,0.006,0.123
	C140.12,78.336,139.936,79.121,139.609,79.849L139.609,79.849z M67.824,63.61l0.401-0.576l0.912-1.309l0.028-0.041h9.251
	l-0.019,0.041l-0.729,1.534l-3.721,7.837H62.611L67.824,63.61z M91.801,53.874h20.414c3.025-0.017,5.472-2.466,5.489-5.491v-2.226
	h12.018c1.15,0.001,2.083,0.934,2.084,2.084V60.15H72.213V48.241c0.001-1.15,0.933-2.083,2.084-2.084h12.014v2.228
	C86.327,51.41,88.777,53.86,91.801,53.874L91.801,53.874z M80.094,61.725l0.019-0.041h9.168l-0.009,0.041l-0.315,1.534l-1.612,7.837
	H75.643l3.722-7.837L80.094,61.725z M123.135,61.725l0.618,1.534l3.158,7.837h-11.986l-1.342-7.837l-0.263-1.534l-0.007-0.041h9.805
	L123.135,61.725z M90.839,61.725l0.008-0.041h9.407v9.412H88.912l1.612-7.837L90.839,61.725z M111.757,61.684l0.007,0.041
	l0.263,1.534l1.342,7.837h-11.582v-9.412H111.757z M75.205,72.629h11.753v4.787c0,0.045,0.003,0.091,0.008,0.136
	c-0.038,3.248-2.701,5.849-5.949,5.812c-3.247-0.038-5.849-2.701-5.811-5.948L75.205,72.629z M88.497,77.417v-4.594
	c0.037-0.06,0.066-0.126,0.085-0.194h11.67v4.787c0,0.039,0.003,0.078,0.008,0.128c-0.036,3.248-2.698,5.854-5.945,5.816
	C91.067,83.326,88.463,80.664,88.497,77.417L88.497,77.417z M101.793,77.417v-4.788h11.756v4.787c-0.002,0.029,0,0.061,0.006,0.089
	c-0.025,3.248-2.678,5.86-5.926,5.836S101.768,80.664,101.793,77.417L101.793,77.417z M115.085,77.417v-4.44
	c0.057-0.108,0.087-0.227,0.088-0.348h11.669v4.787c0,0.037,0,0.073,0.005,0.123c-0.034,3.248-2.695,5.854-5.943,5.82
	C117.657,83.325,115.051,80.664,115.085,77.417L115.085,77.417z M136.189,71.096h-7.623l-3.158-7.837l-0.619-1.534l-0.016-0.041
	h10.346l0.02,0.041l0.72,1.481l0.332,0.686l3.493,7.202L136.189,71.096z M61.904,72.629H73.66v4.787c0,0.037,0,0.074,0.005,0.123
	c-0.035,1.373-0.551,2.69-1.458,3.721c-0.437,0.502-0.956,0.927-1.533,1.257c-0.87,0.499-1.853,0.767-2.856,0.78h-0.03
	c-3.239-0.02-5.86-2.642-5.879-5.881L61.904,72.629z M72.207,83.333c0.94-0.707,1.702-1.624,2.225-2.678
	c1.767,3.671,6.176,5.214,9.848,3.447c1.504-0.726,2.718-1.939,3.444-3.443c1.771,3.671,6.182,5.21,9.853,3.44
	c1.503-0.726,2.715-1.939,3.44-3.442c1.763,3.668,6.167,5.213,9.836,3.45c1.511-0.728,2.729-1.947,3.454-3.458
	c1.763,3.673,6.171,5.221,9.844,3.458c1.511-0.725,2.729-1.943,3.456-3.452c0.858,1.745,2.362,3.086,4.192,3.742v80.675
	c-0.001,1.151-0.933,2.083-2.084,2.084H74.296c-1.15-0.001-2.082-0.933-2.083-2.084L72.207,83.333z M69.352,48.335
	c0.003-2.963,2.405-5.365,5.368-5.368h54.565c2.963,0.003,5.365,2.405,5.368,5.368V60.15h-1.318V48.241
	c-0.002-1.997-1.62-3.615-3.617-3.618h-12.785c-0.424,0-0.768,0.344-0.768,0.767v2.991c-0.011,2.182-1.776,3.946-3.957,3.959H91.807
	c-2.182-0.011-3.948-1.775-3.961-3.957V45.39c0-0.423-0.343-0.767-0.766-0.767H74.298c-1.997,0.003-3.615,1.621-3.617,3.618V60.15
	h-1.322L69.352,48.335z M134.653,164.711c-0.003,2.963-2.405,5.364-5.368,5.368H74.726c-2.964-0.004-5.365-2.405-5.369-5.368V84.657
	c0.453-0.099,0.896-0.242,1.322-0.424v80.842c0.003,1.997,1.621,3.616,3.617,3.618h55.427c1.997-0.002,3.615-1.621,3.618-3.618
	V84.767c0.308,0.042,0.619,0.063,0.931,0.066c0.13,0,0.255-0.014,0.386-0.02L134.653,164.711z M162.115,100.162
	c0.004,6.374-5.16,11.544-11.534,11.548s-11.543-5.159-11.547-11.533c-0.002-1.763,0.401-3.503,1.177-5.086
	c0.123,0.275,0.396,0.452,0.698,0.453h1.984l2.522,7.373c0.106,0.312,0.397,0.521,0.726,0.521h8.668
	c0.326-0.001,0.615-0.205,0.723-0.512l1.914-5.368c0.141-0.4-0.068-0.837-0.468-0.979c-0.082-0.029-0.168-0.044-0.254-0.044h-11.872
	l-0.685-2.003c-0.106-0.31-0.398-0.518-0.726-0.518h-2.532c-0.033,0.001-0.065,0.004-0.097,0.01
	c3.391-5.396,10.512-7.02,15.906-3.627c3.36,2.111,5.398,5.801,5.397,9.769V100.162z M145.376,98.067h10.26l-1.367,3.836h-7.581
	L145.376,98.067z M155.723,80.264v7.884c-3.145-1.352-6.694-1.411-9.883-0.167v-7.717c0-0.148-0.043-0.292-0.123-0.415h10.129
	c-0.079,0.124-0.12,0.267-0.119,0.415H155.723z M141.612,78.315c0.036-0.275,0.058-0.55,0.064-0.828c0-0.006-0.005-0.06-0.007-0.085
	v-1.87h19.663v2.783H141.612z M166.83,81.005h-3.959v-7.771h3.964L166.83,81.005z"/>
<path fill="#FFFFFF" d="M95.463,49.127h13.088c0.424,0,0.767-0.343,0.767-0.767c0-0.423-0.343-0.766-0.767-0.766H95.463
	c-0.423,0-0.767,0.343-0.767,0.766C94.696,48.785,95.04,49.127,95.463,49.127"/>
<path fill="#FFFFFF" d="M81.358,105.042c0.07,0.362,0.386,0.622,0.754,0.622h6.544l-0.133,21.724
	c-0.003,0.424,0.338,0.77,0.762,0.772h0.004h25.443c0.423,0,0.766-0.344,0.766-0.767v-0.005l-0.133-21.724h6.544
	c0.367,0,0.683-0.26,0.752-0.622l1.657-8.568c0.074-0.388-0.158-0.77-0.538-0.881l-14.628-4.264
	c-0.173,0.006-0.345-0.003-0.516-0.03c-0.226,0.001-0.441,0.102-0.585,0.276c-3.886,1.41-8.141,1.426-12.038,0.048
	c-0.144-0.203-0.377-0.324-0.625-0.324c-0.058,0-0.115,0.007-0.17,0.021c-0.115-0.024-0.233-0.021-0.346,0.009l-14.627,4.264
	c-0.38,0.111-0.613,0.493-0.538,0.881L81.358,105.042z M107.651,93.32c-0.68,2.014-2.948,3.501-5.643,3.501
	c-2.668,0-4.92-1.457-5.624-3.442c3.678,1.105,7.602,1.083,11.267-0.062V93.32z M94.703,92.974c0.521,3.037,3.593,5.38,7.305,5.38
	c3.712,0,6.783-2.343,7.304-5.38l13.363,3.896l-1.404,7.259h-6.68c-0.424,0-0.767,0.343-0.767,0.767v0.005l0.134,21.723h-23.9
	l0.133-21.723c0.003-0.424-0.339-0.77-0.762-0.772h-0.004h-6.68l-1.404-7.259L94.703,92.974z"/>
<path fill="#FFFFFF" d="M147.344,55.677c0.423,0,0.767-0.343,0.767-0.767v-2.587c0-0.424-0.344-0.767-0.767-0.767
	c-0.424,0-0.767,0.343-0.767,0.767v2.587C146.577,55.334,146.92,55.677,147.344,55.677"/>
<path fill="#FFFFFF" d="M147.344,62.238c0.423,0,0.767-0.344,0.767-0.768v-2.587c0-0.424-0.344-0.768-0.767-0.768
	c-0.424,0-0.767,0.344-0.767,0.768v2.587C146.577,61.894,146.92,62.238,147.344,62.238"/>
<path fill="#FFFFFF" d="M142.77,57.663h2.589c0.423,0,0.766-0.343,0.766-0.767c0-0.423-0.343-0.766-0.766-0.766h-2.589
	c-0.424,0-0.767,0.343-0.767,0.766C142.003,57.32,142.346,57.663,142.77,57.663"/>
<path fill="#FFFFFF" d="M149.329,57.663h2.589c0.424,0,0.767-0.343,0.767-0.767c0-0.423-0.343-0.766-0.767-0.766h-2.589
	c-0.423,0-0.767,0.343-0.767,0.766C148.562,57.32,148.906,57.663,149.329,57.663"/>
<path fill="#FFFFFF" d="M58.528,104.246c-0.423,0-0.767,0.345-0.767,0.768v2.588c0,0.424,0.344,0.767,0.767,0.767
	c0.424,0,0.767-0.343,0.767-0.767v-2.588C59.295,104.59,58.952,104.246,58.528,104.246"/>
<path fill="#FFFFFF" d="M58.528,110.805c-0.423,0-0.767,0.343-0.767,0.768v2.588c0,0.423,0.344,0.767,0.767,0.767
	c0.424,0,0.767-0.344,0.767-0.767v-2.588C59.295,111.148,58.952,110.805,58.528,110.805"/>
<path fill="#FFFFFF" d="M56.543,108.819h-2.589c-0.424,0-0.767,0.345-0.767,0.769c0,0.422,0.343,0.766,0.767,0.766h2.589
	c0.423,0,0.767-0.344,0.767-0.766C57.31,109.164,56.966,108.819,56.543,108.819"/>
<path fill="#FFFFFF" d="M63.102,108.819h-2.589c-0.423,0-0.766,0.345-0.766,0.769c0,0.422,0.343,0.766,0.766,0.766h2.589
	c0.424,0,0.767-0.344,0.767-0.766C63.869,109.164,63.526,108.819,63.102,108.819"/>
<path fill="#FFFFFF" d="M76.23,31.306c0.424,0,0.767-0.343,0.767-0.767v-2.587c0-0.424-0.343-0.768-0.767-0.768
	c-0.423,0-0.767,0.344-0.767,0.768v2.587C75.463,30.963,75.807,31.306,76.23,31.306"/>
<path fill="#FFFFFF" d="M76.23,37.866c0.424,0,0.767-0.343,0.767-0.767v-2.588c0-0.423-0.343-0.767-0.767-0.767
	c-0.423,0-0.767,0.344-0.767,0.767v2.588C75.463,37.523,75.807,37.866,76.23,37.866"/>
<path fill="#FFFFFF" d="M71.656,33.292h2.589c0.423,0,0.766-0.344,0.766-0.767s-0.343-0.767-0.766-0.767h-2.589
	c-0.424,0-0.767,0.344-0.767,0.767S71.232,33.292,71.656,33.292"/>
<path fill="#FFFFFF" d="M78.215,33.292h2.589c0.424,0,0.767-0.344,0.767-0.767s-0.343-0.767-0.767-0.767h-2.589
	c-0.423,0-0.767,0.344-0.767,0.767S77.792,33.292,78.215,33.292"/>
</svg>
