<?xml version="1.0" encoding="utf-8"?>
<!-- Generator: Adobe Illustrator 16.0.0, SVG Export Plug-In . SVG Version: 6.00 Build 0)  -->
<!DOCTYPE svg PUBLIC "-//W3C//DTD SVG 1.1//EN" "http://www.w3.org/Graphics/SVG/1.1/DTD/svg11.dtd">
<svg version="1.1" id="Capa_1" xmlns="http://www.w3.org/2000/svg" xmlns:xlink="http://www.w3.org/1999/xlink" x="0px" y="0px"
	 width="141.732px" height="141.732px" viewBox="0 0 141.732 141.732" enable-background="new 0 0 141.732 141.732"
	 xml:space="preserve">
<g>
	<path fill="#5E59FA" d="M138.242,70.866c0-37.211-30.165-67.376-67.376-67.376S3.49,33.655,3.49,70.866
		c0,37.21,30.165,67.376,67.376,67.376S138.242,108.076,138.242,70.866"/>
	<path fill="#FFFFFF" d="M39.73,73.715c-0.383,0-0.741-0.188-0.958-0.505c-8.252-12.097-5.136-28.594,6.962-36.846
		c12.097-8.253,28.593-5.135,36.846,6.961c4.725,6.926,5.896,15.678,3.157,23.602c-0.209,0.605-0.87,0.926-1.475,0.717
		c-0.605-0.21-0.928-0.87-0.717-1.477c4.373-12.632-2.32-26.418-14.952-30.792c-12.632-4.375-26.417,2.319-30.792,14.951
		c-2.508,7.242-1.438,15.244,2.886,21.573c0.361,0.529,0.226,1.251-0.303,1.612C40.191,73.645,39.964,73.715,39.73,73.715"/>
	<path fill="#FFFFFF" d="M67.7,92.965c-2.071,0.071-4.142-0.18-6.137-0.744c-0.574-0.177-12.133-3.754-19.651-6.755
		c-0.834-0.333-1.461-0.547-2.015-0.738c-0.713-0.224-1.408-0.502-2.08-0.831c-3.093-1.434-4.436-5.104-3.001-8.196
		c0.671-1.448,1.878-2.579,3.366-3.156c1.8-0.525,3.729-0.372,5.424,0.428l15.055,5.608h2.131c-0.892-1.242-1.342-2.747-1.277-4.276
		c0.022-4.627,4.422-5.976,6.753-6.04l9.82-0.096c10.714-5.837,20.27,2.52,20.365,2.606c0.245,0.22,0.386,0.534,0.386,0.864v17.549
		c0.001,0.641-0.518,1.16-1.158,1.161h-0.002c-6.853,0.077-13.688,0.717-20.437,1.91C72.753,92.712,70.229,92.947,67.7,92.965
		 M40.216,74.529c-2.1,0.072-3.74,1.832-3.668,3.931c0.052,1.479,0.957,2.795,2.321,3.37c0.575,0.279,1.171,0.514,1.782,0.705
		c0.551,0.188,1.236,0.424,2.124,0.776c7.583,3.031,19.374,6.663,19.491,6.7l0.055,0.018c0.035,0.014,4.139,1.406,12.52-0.053
		c6.5-1.138,13.077-1.786,19.676-1.935V72.184c-1.773-1.4-9.224-6.563-17.554-1.849c-0.171,0.096-0.364,0.147-0.561,0.149
		l-10.094,0.101c-0.437,0.014-4.478,0.256-4.478,3.756v0.071c-0.167,2.032,1.261,3.85,3.275,4.168H76.39
		c0.641-0.017,1.174,0.489,1.191,1.13c0.017,0.639-0.489,1.173-1.13,1.189H76.39H58.454c-0.139,0-0.275-0.024-0.404-0.073
		l-15.302-5.699c-0.04-0.015-0.08-0.032-0.118-0.052C41.871,74.732,41.049,74.546,40.216,74.529L40.216,74.529z"/>
	<path fill="#FFFFFF" d="M106.414,96.715H95.806c-0.641,0-1.16-0.52-1.16-1.16V70.84c0-0.641,0.519-1.159,1.159-1.16h0.001h10.608
		c0.64,0,1.159,0.519,1.159,1.159v0.001v24.716C107.573,96.195,107.054,96.714,106.414,96.715 M96.966,94.395h8.288V72h-8.288
		V94.395z"/>
	<path fill="#FFFFFF" d="M45.872,50.868c-0.08-1.775,0.668-3.486,2.028-4.629c1.238-1.069,2.828-1.642,4.463-1.608
		c1.661-0.043,3.279,0.531,4.542,1.611c1.311,1.177,2.03,2.876,1.965,4.636v9.588c0.063,1.756-0.656,3.45-1.965,4.622
		c-1.265,1.079-2.879,1.662-4.542,1.638c-1.637,0.014-3.223-0.567-4.463-1.638c-1.357-1.138-2.106-2.844-2.028-4.615V50.868z
		 M55.6,51.062c-0.064-2.184-1.144-3.294-3.236-3.332c-2.104,0.039-3.176,1.149-3.219,3.332v9.229
		c0.042,2.203,1.115,3.313,3.219,3.333c2.093-0.02,3.173-1.131,3.236-3.333V51.062z"/>
	<path fill="#FFFFFF" d="M61.069,47.641c-0.054-0.884,0.314-1.741,0.995-2.309c0.598-0.471,1.34-0.718,2.101-0.701
		c0.78-0.019,1.543,0.229,2.165,0.701c0.635,0.595,0.97,1.442,0.915,2.309v2.088c0.012,0.457-0.064,0.913-0.224,1.342
		c-0.139,0.371-0.378,0.697-0.691,0.939c-0.614,0.49-1.38,0.749-2.165,0.731c-0.766,0.017-1.511-0.242-2.101-0.731
		c-0.684-0.553-1.054-1.404-0.995-2.28V47.641z M72.48,44.809h2.146l-11.147,21.74h-2.18L72.48,44.809z M62.883,49.506
		c0,1.004,0.425,1.506,1.273,1.506s1.272-0.502,1.272-1.506v-1.638c0-1.004-0.423-1.506-1.272-1.506s-1.274,0.502-1.273,1.506
		V49.506z M68.673,61.624c-0.054-0.884,0.315-1.741,0.995-2.309c0.598-0.471,1.34-0.719,2.101-0.701
		c0.78-0.018,1.544,0.229,2.166,0.701c0.634,0.595,0.97,1.443,0.914,2.312v2.087c0.013,0.457-0.063,0.913-0.224,1.341
		c-0.138,0.372-0.377,0.698-0.69,0.94c-0.614,0.489-1.381,0.747-2.166,0.73c-0.765,0.017-1.511-0.243-2.101-0.73
		c-0.683-0.553-1.054-1.403-0.995-2.28V61.624z M70.488,63.489c0,1.005,0.424,1.507,1.272,1.507c0.848,0,1.272-0.502,1.272-1.507
		v-1.638c0-1.004-0.425-1.507-1.272-1.507c-0.849,0-1.272,0.503-1.272,1.507V63.489z"/>
</g>
</svg>
