<?xml version="1.0" encoding="utf-8"?>
<!-- Generator: Adobe Illustrator 16.0.0, SVG Export Plug-In . SVG Version: 6.00 Build 0)  -->
<!DOCTYPE svg PUBLIC "-//W3C//DTD SVG 1.1//EN" "http://www.w3.org/Graphics/SVG/1.1/DTD/svg11.dtd">
<svg version="1.1" id="Capa_1" xmlns="http://www.w3.org/2000/svg" xmlns:xlink="http://www.w3.org/1999/xlink" x="0px" y="0px"
	 width="141.732px" height="141.732px" viewBox="0 0 141.732 141.732" enable-background="new 0 0 141.732 141.732"
	 xml:space="preserve">
<g>
	<path fill="#FFFFFF" d="M138.243,70.866c0-37.21-30.166-67.376-67.376-67.376C33.656,3.49,3.49,33.656,3.49,70.866
		c0,37.211,30.166,67.376,67.376,67.376C108.077,138.242,138.243,108.077,138.243,70.866"/>
	<path fill="#5E59FA" d="M47.005,78.92c0.076,0.396,0.422,0.682,0.825,0.682h7.175l-0.146,23.817
		c-0.002,0.464,0.372,0.843,0.836,0.845H55.7h27.893c0.464,0,0.841-0.376,0.841-0.84v-0.005l-0.146-23.817h7.175
		c0.403,0,0.749-0.286,0.825-0.682l1.814-9.393c0.083-0.427-0.173-0.845-0.589-0.967l-16.037-4.674
		c-0.188,0.006-0.379-0.005-0.567-0.034c-0.246,0.001-0.481,0.112-0.64,0.303c-4.26,1.547-8.926,1.564-13.198,0.054
		c-0.158-0.224-0.413-0.355-0.685-0.356c-0.063,0.001-0.126,0.009-0.187,0.023c-0.126-0.026-0.255-0.022-0.379,0.011l-16.037,4.674
		c-0.416,0.122-0.671,0.54-0.589,0.967L47.005,78.92z M75.831,66.068c-0.745,2.209-3.233,3.84-6.187,3.84
		c-2.925,0-5.395-1.599-6.166-3.774c4.032,1.211,8.334,1.188,12.353-0.068V66.068z M61.635,65.69
		c0.571,3.33,3.939,5.898,8.009,5.898c4.069,0,7.437-2.568,8.007-5.898l14.651,4.271l-1.539,7.958H83.44
		c-0.466,0-0.842,0.376-0.842,0.841v0.005l0.146,23.817H56.542l0.147-23.817c0.003-0.464-0.372-0.843-0.836-0.846h-0.005h-7.324
		l-1.538-7.958L61.635,65.69z"/>
	<path fill="#5E59FA" d="M36.768,38.954c-0.926,0-1.676,0.75-1.676,1.676s0.751,1.677,1.676,1.676c0.925,0,1.675-0.75,1.675-1.676
		S37.693,38.954,36.768,38.954"/>
	<path fill="#5E59FA" d="M45.067,40.632c0-0.926-0.75-1.676-1.675-1.676c-0.926,0-1.676,0.75-1.676,1.676
		c0,0.925,0.75,1.676,1.676,1.676C44.317,42.308,45.067,41.557,45.067,40.632"/>
	<path fill="#5E59FA" d="M50.011,42.31c0.925,0,1.675-0.75,1.675-1.676s-0.75-1.676-1.675-1.676c-0.925,0-1.676,0.75-1.676,1.676
		S49.086,42.31,50.011,42.31"/>
	<path fill="#5E59FA" d="M38.144,86.333l4.137-4.137c0.363-0.375,0.353-0.974-0.022-1.338c-0.367-0.354-0.949-0.354-1.316,0
		l-4.805,4.806c-0.369,0.369-0.369,0.968,0,1.338l4.817,4.817c0.37,0.369,0.968,0.369,1.338-0.001
		c0.369-0.369,0.369-0.968-0.001-1.338L38.144,86.333z"/>
	<path fill="#5E59FA" d="M98.231,80.858c-0.375-0.363-0.976-0.354-1.338,0.021c-0.355,0.368-0.355,0.949,0,1.316l4.146,4.147
		l-4.137,4.137c-0.369,0.369-0.369,0.969,0,1.338c0.369,0.37,0.969,0.37,1.338,0.001l4.806-4.807c0.369-0.369,0.369-0.967,0-1.338
		L98.231,80.858z"/>
	<path fill="#5E59FA" d="M110.65,52.406V46.84c-0.001-0.201-0.066-0.397-0.187-0.559v-8.835c-0.004-2.411-1.959-4.366-4.371-4.37
		H32.646c-2.413,0.003-4.368,1.959-4.371,4.37v68.41c0.003,2.413,1.958,4.369,4.371,4.371h73.446
		c2.412-0.003,4.367-1.958,4.371-4.371V54.092c0.118-0.519,0.183-1.048,0.191-1.579C110.655,52.48,110.653,52.447,110.65,52.406
		 M108.764,52.51c-0.049,3.167-2.655,5.696-5.822,5.646c-3.133-0.049-5.646-2.602-5.646-5.734v-4.635h11.465v4.635
		C108.758,52.451,108.76,52.48,108.764,52.51L108.764,52.51z M30.165,37.446c0.002-1.367,1.111-2.478,2.479-2.479h73.446
		c1.367,0.002,2.477,1.111,2.479,2.479v8.448H30.165V37.446z M95.401,52.542c-0.044,3.168-2.646,5.699-5.814,5.656
		c-3.152-0.043-5.68-2.624-5.656-5.776v-4.635h11.465v4.635C95.396,52.458,95.401,52.498,95.401,52.542 M82.038,52.542
		c-0.083,3.167-2.718,5.667-5.885,5.583c-3.098-0.082-5.569-2.608-5.584-5.706v-4.636h11.464v4.636c0,0.039,0.003,0.079,0.006,0.125
		L82.038,52.542z M68.676,52.509c-0.048,3.167-2.656,5.695-5.823,5.646c-3.133-0.048-5.646-2.602-5.646-5.734v-4.635h11.465v4.635
		C68.672,52.451,68.673,52.48,68.676,52.509L68.676,52.509z M55.314,52.541c-0.084,3.167-2.719,5.666-5.886,5.583
		c-3.095-0.082-5.567-2.607-5.584-5.704v-4.635H55.31v4.635C55.31,52.458,55.311,52.498,55.314,52.541L55.314,52.541z
		 M41.952,52.509c-0.049,3.167-2.656,5.695-5.823,5.646c-3.133-0.048-5.647-2.602-5.647-5.734v-4.635h11.465v4.635
		C41.947,52.451,41.948,52.48,41.952,52.509L41.952,52.509z M108.571,105.856c-0.002,1.368-1.111,2.479-2.479,2.479H32.646
		c-1.368-0.001-2.477-1.11-2.479-2.479V57.044c2.535,3.344,7.301,4,10.646,1.463c0.858-0.65,1.568-1.477,2.083-2.421
		c2.012,3.688,6.634,5.049,10.324,3.037c1.284-0.701,2.338-1.754,3.038-3.037c2.012,3.688,6.635,5.049,10.324,3.037
		c1.283-0.701,2.338-1.754,3.038-3.037c2.013,3.688,6.636,5.048,10.325,3.036c1.281-0.7,2.336-1.755,3.036-3.036
		c2.012,3.688,6.634,5.05,10.323,3.039c1.285-0.701,2.34-1.756,3.039-3.039c2.002,3.683,6.611,5.046,10.295,3.044
		c0.723-0.393,1.375-0.899,1.936-1.502L108.571,105.856z"/>
</g>
</svg>
