<?xml version="1.0" encoding="utf-8"?>
<!-- Generator: Adobe Illustrator 16.0.0, SVG Export Plug-In . SVG Version: 6.00 Build 0)  -->
<!DOCTYPE svg PUBLIC "-//W3C//DTD SVG 1.1//EN" "http://www.w3.org/Graphics/SVG/1.1/DTD/svg11.dtd">
<svg version="1.1" id="Capa_1" xmlns="http://www.w3.org/2000/svg" xmlns:xlink="http://www.w3.org/1999/xlink" x="0px" y="0px"
	 width="141.732px" height="141.732px" viewBox="0 0 141.732 141.732" enable-background="new 0 0 141.732 141.732"
	 xml:space="preserve">
<g>
	<path fill="#5E59FA" d="M138.242,70.866c0-37.211-30.165-67.376-67.376-67.376S3.49,33.655,3.49,70.866
		s30.165,67.376,67.376,67.376S138.242,108.077,138.242,70.866"/>
	<path fill="#FFFFFF" d="M34.945,38.781v3.431c0.019,0.653,0.544,1.18,1.197,1.197c0.681,0.02,1.248-0.517,1.268-1.197v-3.429
		c0-0.682-0.552-1.232-1.233-1.232C35.497,37.551,34.946,38.101,34.945,38.781"/>
	<path fill="#FFFFFF" d="M34.945,47.472v3.429c0.019,0.653,0.544,1.179,1.197,1.197c0.681,0.021,1.248-0.518,1.268-1.197v-3.43
		c0-0.681-0.552-1.232-1.233-1.232C35.496,46.24,34.944,46.792,34.945,47.472"/>
	<path fill="#FFFFFF" d="M38.738,43.608c-0.681,0.021-1.217,0.587-1.197,1.269c0.019,0.68,0.586,1.216,1.267,1.197h3.43
		c0.653-0.019,1.179-0.544,1.197-1.197c0.02-0.682-0.517-1.248-1.197-1.269h-3.43H38.738z"/>
	<path fill="#FFFFFF" d="M30.049,43.608c-0.681,0.021-1.217,0.587-1.198,1.269c0.02,0.68,0.587,1.216,1.268,1.197h3.429
		c0.654-0.019,1.18-0.544,1.198-1.197c0.02-0.682-0.518-1.248-1.198-1.269h-3.429H30.049z"/>
	<path fill="#FFFFFF" d="M37.564,54.93v35.646c0,0.487,0.286,0.931,0.733,1.127l36.348,16.124c0.157,0.069,0.327,0.105,0.498,0.105
		h0.16c0.085,0,0.169-0.009,0.252-0.027c0.082-0.017,0.162-0.043,0.238-0.076H75.8l36.349-16.124
		c0.445-0.196,0.733-0.64,0.733-1.127V54.932V54.92c-0.002-0.1-0.017-0.197-0.042-0.291c-0.007-0.029-0.015-0.056-0.024-0.082
		c-0.01-0.028-0.015-0.057-0.024-0.083c-0.024-0.052-0.05-0.102-0.08-0.148c-0.011-0.017-0.018-0.036-0.028-0.052
		c-0.055-0.085-0.119-0.163-0.193-0.232c-0.018-0.016-0.037-0.029-0.055-0.044c-0.065-0.054-0.137-0.102-0.213-0.141
		c-0.015-0.007-0.023-0.02-0.039-0.026l-10.419-4.972c1.46-1.265,2.514-2.936,3.026-4.798c0.939-3.354-0.536-7.819-5.989-9.688
		c-5.639-1.933-11.056,1.379-15.377,5.738l-7.311-3.487c-0.227-0.204-0.521-0.316-0.826-0.316h-0.118
		c-0.305,0-0.6,0.112-0.826,0.316l-7.312,3.487c-4.32-4.358-9.738-7.675-15.377-5.738c-5.453,1.865-6.929,6.329-5.99,9.688
		c0.514,1.862,1.566,3.533,3.027,4.798l-10.42,4.972c-0.012,0.007-0.021,0.018-0.033,0.022c-0.079,0.042-0.154,0.091-0.224,0.147
		c-0.016,0.014-0.033,0.025-0.047,0.04c-0.078,0.069-0.144,0.148-0.201,0.234c-0.01,0.016-0.017,0.034-0.025,0.049
		c-0.03,0.048-0.057,0.098-0.08,0.151c-0.011,0.025-0.016,0.054-0.024,0.082c-0.009,0.026-0.017,0.053-0.024,0.082
		c-0.025,0.094-0.039,0.191-0.041,0.291v0.013v0.008L37.564,54.93z M50.999,50.48c3.821,2.17,9.712,3.481,18.165,4.119l-13.19,6.075
		L41.84,54.85L50.999,50.48z M96.637,49.134c-3.657,1.558-9.582,2.763-19.312,3.241c1.918-3.299,4.148-6.406,6.66-9.277
		L96.637,49.134z M66.466,43.101c0.23,0.255,0.457,0.511,0.676,0.762c2.24,2.658,4.246,5.504,5.995,8.508
		c-9.73-0.478-15.657-1.683-19.313-3.241l12.643-6.031V43.101z M75.33,54.927c0.243-0.009,0.478-0.02,0.722-0.029l15.324,7.057
		l-16.145,6.648l-16.145-6.651l15.323-7.057c0.239,0.01,0.477,0.021,0.719,0.03c0.013,0.001,0.027,0.005,0.042,0.005h0.118
		c0.015,0,0.028-0.005,0.042-0.005L75.33,54.927z M93.203,63.868v33.549l-16.67,7.395l-0.128-34.025L93.203,63.868z M74.067,104.873
		l-16.813-7.459V63.862l16.687,6.877L74.067,104.873z M64.656,41.232l-13.511,6.445c-1.523-1.004-2.627-2.531-3.104-4.292
		c-0.139-0.485-1.16-4.784,4.414-6.695c0.809-0.277,1.657-0.418,2.511-0.417C58.448,36.273,61.849,38.548,64.656,41.232
		 M81.667,41.99c-2.418,2.817-4.573,5.853-6.437,9.063c-1.865-3.21-4.02-6.245-6.438-9.063l6.437-3.071L81.667,41.99z
		 M99.313,47.677l-13.527-6.453c2.915-2.811,6.253-4.959,9.655-4.959c0.871-0.001,1.737,0.143,2.562,0.426
		c5.577,1.912,4.55,6.21,4.415,6.694C101.94,45.147,100.837,46.673,99.313,47.677 M81.294,54.598
		c8.453-0.637,14.344-1.949,18.164-4.119l9.159,4.37l-14.133,5.825L81.294,54.598L81.294,54.598z M110.421,89.785l-14.752,6.544
		V62.852l14.752-6.078V89.785z M40.036,89.781V56.773l14.752,6.078v33.478L40.036,89.781z"/>
</g>
</svg>
