<?xml version="1.0" encoding="utf-8"?>
<!-- Generator: Adobe Illustrator 16.0.0, SVG Export Plug-In . SVG Version: 6.00 Build 0)  -->
<!DOCTYPE svg PUBLIC "-//W3C//DTD SVG 1.1//EN" "http://www.w3.org/Graphics/SVG/1.1/DTD/svg11.dtd">
<svg version="1.1" id="Capa_1" xmlns="http://www.w3.org/2000/svg" xmlns:xlink="http://www.w3.org/1999/xlink" x="0px" y="0px"
	 width="650.537px" height="86px" viewBox="0 0 650.537 86" enable-background="new 0 0 650.537 86" xml:space="preserve">
<g>
	<path fill="#FFFFFF" d="M88.708,83.327c-1.372,0-2.483-1.113-2.483-2.484c0-1.37,1.111-2.483,2.483-2.483h520.796
		c11.049-0.228,19.905-4.336,26.273-12.215c4.762-5.892,6.255-11.685,6.27-11.74c0.335-1.331,1.683-2.139,3.015-1.805
		c1.331,0.334,2.138,1.684,1.805,3.014c-0.069,0.279-1.78,6.921-7.225,13.654c-5.041,6.235-14.353,13.737-30.087,14.06H88.708z"/>
	<path fill="#FFFFFF" d="M79.664,65.934L72.49,29.315c-0.27-4.55-3.748-8.241-8.197-8.861v5.101c1.864,0.568,3.229,2.281,3.229,4.33
		l7.25,37.008c0.229,1.17,1.254,2.015,2.446,2.015C78.787,68.907,79.966,67.475,79.664,65.934"/>
	<path fill="#FFFFFF" d="M64.805,78.301H15.973c-2.511,0-4.548-2.035-4.548-4.547l8.594-43.87c0-2.512,2.036-4.548,4.548-4.548
		h2.315v7.71c-1.008,0.734-1.67,1.916-1.67,3.258c0,2.232,1.809,4.041,4.04,4.041s4.04-1.809,4.04-4.041
		c0-1.321-0.645-2.483-1.625-3.221V21.919c0-6.636,5.397-12.034,12.034-12.034c6.102,0,11.146,4.571,11.918,10.467H35.561v4.985
		h20.172v7.733c-0.99,0.736-1.642,1.906-1.642,3.235c0,2.232,1.808,4.041,4.04,4.041c2.23,0,4.04-1.809,4.04-4.041
		c0-1.334-0.655-2.507-1.652-3.243V21.919c0-9.273-7.545-16.818-16.817-16.818c-8.745,0-15.946,6.71-16.739,15.251h-2.396
		c-5.064,0-9.22,3.971-9.516,8.963l-8.518,43.48L6.44,73.27v0.484c0,5.266,4.269,9.533,9.533,9.533h48.832
		c1.377,0,2.493-1.117,2.493-2.494C67.298,79.418,66.182,78.301,64.805,78.301"/>
	<path fill="#39405A" d="M147.423,20.859v44.854h-8.192V38.17c0-0.577,0.016-1.195,0.046-1.854c0.031-0.66,0.089-1.33,0.17-2.01
		l-12.828,24.327c-0.7,1.342-1.782,2.01-3.245,2.01h-1.299c-0.722,0-1.36-0.17-1.916-0.51c-0.558-0.34-1-0.839-1.33-1.5
		l-12.891-24.42c0.063,0.722,0.113,1.417,0.154,2.086c0.042,0.67,0.062,1.294,0.062,1.871v27.543h-8.19V20.859h7.048
		c0.391,0,0.742,0.011,1.051,0.031c0.31,0.021,0.582,0.077,0.819,0.17c0.237,0.093,0.453,0.237,0.648,0.433
		c0.196,0.196,0.388,0.469,0.572,0.819l12.55,23.926c0.393,0.722,0.759,1.463,1.099,2.225c0.34,0.764,0.665,1.547,0.973,2.35
		c0.311-0.822,0.635-1.627,0.974-2.41c0.342-0.782,0.706-1.534,1.099-2.256l12.458-23.833c0.185-0.35,0.38-0.623,0.587-0.819
		c0.205-0.196,0.427-0.34,0.664-0.433c0.237-0.093,0.505-0.149,0.804-0.17c0.299-0.02,0.654-0.031,1.067-0.031L147.423,20.859
		L147.423,20.859z"/>
	<path fill="#39405A" d="M163.126,24.785c0,0.721-0.145,1.391-0.434,2.009c-0.288,0.618-0.676,1.165-1.158,1.638
		c-0.484,0.475-1.052,0.846-1.701,1.114s-1.345,0.401-2.086,0.401c-0.7,0-1.365-0.133-1.994-0.401s-1.179-0.639-1.654-1.114
		c-0.474-0.473-0.85-1.02-1.127-1.638c-0.279-0.618-0.418-1.288-0.418-2.009c0-0.721,0.139-1.396,0.418-2.025
		c0.277-0.629,0.653-1.18,1.127-1.654c0.476-0.474,1.025-0.844,1.654-1.113c0.629-0.267,1.294-0.401,1.994-0.401
		c0.741,0,1.437,0.134,2.086,0.401c0.649,0.269,1.217,0.639,1.701,1.113c0.482,0.474,0.87,1.025,1.158,1.654
		C162.982,23.389,163.126,24.064,163.126,24.785 M162.106,65.713h-8.531v-31.87h8.531V65.713z"/>
	<path fill="#39405A" d="M219.972,20.859v44.854h-4.791c-0.722,0-1.33-0.119-1.824-0.355c-0.495-0.236-0.979-0.645-1.452-1.221
		l-22.35-28.438c0.063,0.721,0.108,1.433,0.139,2.133c0.03,0.701,0.047,1.35,0.047,1.947v25.936h-8.192V20.859h4.884
		c0.393,0,0.728,0.016,1.005,0.046c0.279,0.031,0.531,0.104,0.757,0.217c0.229,0.113,0.444,0.263,0.65,0.448s0.433,0.433,0.68,0.742
		l22.505,28.563c-0.083-0.783-0.145-1.54-0.186-2.271s-0.063-1.428-0.063-2.088V20.859H219.972z"/>
	<path fill="#39405A" d="M232.184,51.092c0.269,2.988,1.118,5.174,2.551,6.555c1.432,1.379,3.303,2.069,5.61,2.069
		c1.174,0,2.189-0.14,3.044-0.418c0.856-0.276,1.608-0.587,2.257-0.927c0.649-0.34,1.237-0.648,1.763-0.928
		c0.525-0.277,1.046-0.416,1.562-0.416c0.659,0,1.174,0.246,1.545,0.74l2.473,3.092c-0.906,1.051-1.906,1.922-2.997,2.613
		c-1.094,0.688-2.227,1.233-3.401,1.637c-1.175,0.401-2.36,0.682-3.554,0.836c-1.196,0.154-2.351,0.229-3.464,0.229
		c-2.226,0-4.302-0.364-6.229-1.098c-1.927-0.729-3.606-1.813-5.038-3.243c-1.433-1.436-2.561-3.21-3.386-5.335
		c-0.824-2.121-1.236-4.584-1.236-7.388c0-2.163,0.355-4.204,1.066-6.12c0.711-1.917,1.736-3.586,3.077-5.008
		c1.338-1.422,2.967-2.551,4.883-3.385c1.917-0.835,4.081-1.252,6.493-1.252c2.039,0,3.919,0.324,5.641,0.974
		c1.72,0.649,3.204,1.592,4.451,2.828c1.246,1.237,2.215,2.757,2.906,4.56c0.689,1.803,1.034,3.858,1.034,6.167
		c0,0.639-0.03,1.164-0.093,1.576c-0.061,0.412-0.165,0.742-0.309,0.988c-0.145,0.248-0.339,0.418-0.587,0.51
		c-0.248,0.094-0.567,0.141-0.958,0.141h-19.104V51.092z M245.6,46.021c0-0.886-0.119-1.73-0.354-2.535
		c-0.238-0.804-0.614-1.515-1.129-2.133c-0.517-0.618-1.164-1.107-1.948-1.468c-0.783-0.36-1.72-0.541-2.813-0.541
		c-2.04,0-3.638,0.577-4.791,1.731c-1.153,1.154-1.906,2.803-2.257,4.945H245.6z"/>
	<path fill="#39405A" d="M285.075,34.894v3.122c0,0.494-0.141,0.886-0.417,1.175c-0.279,0.288-0.738,0.505-1.376,0.649l-2.598,0.525
		c0.351,1.01,0.525,2.092,0.525,3.246c0,1.586-0.324,3.014-0.975,4.281c-0.647,1.269-1.54,2.351-2.673,3.246
		c-1.133,0.896-2.473,1.588-4.019,2.07c-1.545,0.484-3.215,0.727-5.008,0.727c-1.134,0-2.194-0.093-3.185-0.276
		c-0.865,0.534-1.298,1.123-1.298,1.762c0,0.599,0.293,1.029,0.88,1.298c0.588,0.27,1.361,0.458,2.319,0.571
		c0.959,0.112,2.051,0.187,3.278,0.217c1.225,0.031,2.473,0.099,3.738,0.201c1.268,0.103,2.515,0.283,3.741,0.541
		c1.226,0.258,2.318,0.679,3.277,1.269c0.957,0.586,1.729,1.364,2.317,2.332c0.587,0.971,0.882,2.217,0.882,3.74
		c0,1.422-0.351,2.805-1.052,4.143c-0.701,1.34-1.716,2.535-3.045,3.588c-1.33,1.051-2.962,1.895-4.898,2.533
		c-1.938,0.639-4.144,0.959-6.616,0.959c-2.453,0-4.581-0.232-6.383-0.695c-1.805-0.465-3.299-1.082-4.482-1.855
		c-1.186-0.771-2.067-1.664-2.643-2.674c-0.578-1.01-0.866-2.063-0.866-3.152c0-1.422,0.432-2.627,1.298-3.617
		c0.866-0.989,2.061-1.78,3.587-2.379c-0.805-0.453-1.449-1.047-1.933-1.776c-0.484-0.731-0.727-1.687-0.727-2.86
		c0-0.949,0.344-1.947,1.035-2.999c0.691-1.051,1.756-1.926,3.2-2.627c-1.628-0.866-2.916-2.024-3.865-3.479
		c-0.947-1.453-1.421-3.147-1.421-5.084c0-1.587,0.324-3.02,0.973-4.297c0.65-1.277,1.552-2.365,2.705-3.261
		c1.154-0.897,2.515-1.581,4.081-2.056c1.566-0.473,3.267-0.711,5.101-0.711c2.721,0,5.122,0.536,7.203,1.608h9.336V34.894z
		 M276.604,67.011c0-0.556-0.174-1.009-0.525-1.358c-0.351-0.352-0.818-0.629-1.406-0.836c-0.587-0.205-1.282-0.354-2.086-0.448
		c-0.804-0.093-1.659-0.164-2.566-0.216c-0.907-0.051-1.844-0.098-2.813-0.139s-1.916-0.113-2.845-0.219
		c-0.722,0.436-1.313,0.943-1.777,1.531c-0.463,0.588-0.695,1.252-0.695,1.994c0,0.516,0.118,0.988,0.355,1.422
		c0.236,0.434,0.634,0.805,1.19,1.113c0.558,0.308,1.287,0.551,2.195,0.727c0.906,0.174,2.04,0.263,3.399,0.263
		c1.401,0,2.587-0.093,3.556-0.278c0.968-0.186,1.751-0.448,2.349-0.789c0.599-0.34,1.025-0.745,1.283-1.221
		C276.476,68.083,276.604,67.568,276.604,67.011 M268.536,48.588c1.752,0,3.045-0.443,3.88-1.329
		c0.834-0.886,1.252-2.03,1.252-3.432c0-1.463-0.418-2.612-1.252-3.447c-0.835-0.834-2.128-1.251-3.88-1.251
		s-3.04,0.417-3.864,1.251c-0.824,0.835-1.236,1.984-1.236,3.447c0,1.38,0.417,2.521,1.252,3.416
		C265.522,48.141,266.806,48.588,268.536,48.588"/>
	<path fill="#39405A" d="M301.458,33.348c2.391,0,4.563,0.382,6.521,1.144c1.958,0.763,3.638,1.85,5.04,3.261
		c1.4,1.412,2.482,3.128,3.245,5.147c0.762,2.021,1.144,4.298,1.144,6.833c0,2.535-0.382,4.817-1.144,6.847
		c-0.763,2.03-1.845,3.756-3.245,5.178c-1.402,1.423-3.082,2.515-5.04,3.277c-1.958,0.762-4.131,1.143-6.521,1.143
		c-2.411,0-4.602-0.381-6.569-1.143c-1.969-0.763-3.653-1.854-5.054-3.277c-1.401-1.422-2.488-3.147-3.261-5.178
		c-0.773-2.028-1.159-4.312-1.159-6.847c0-2.534,0.386-4.813,1.159-6.833c0.772-2.019,1.859-3.735,3.261-5.147
		c1.4-1.411,3.085-2.498,5.054-3.261C296.857,33.73,299.047,33.348,301.458,33.348 M301.458,59.779c2.431,0,4.234-0.84,5.409-2.521
		c1.176-1.68,1.763-4.178,1.763-7.494c0-3.299-0.587-5.787-1.763-7.467c-1.175-1.679-2.979-2.519-5.409-2.519
		c-2.494,0-4.328,0.84-5.502,2.519c-1.176,1.68-1.763,4.168-1.763,7.467c0,3.316,0.587,5.814,1.763,7.494
		C297.13,58.939,298.964,59.779,301.458,59.779"/>
	<path fill="#39405A" d="M344.056,40.952c-0.248,0.331-0.495,0.583-0.743,0.757c-0.247,0.176-0.597,0.263-1.051,0.263
		c-0.411,0-0.81-0.118-1.19-0.355c-0.381-0.237-0.817-0.495-1.313-0.773c-0.495-0.278-1.082-0.536-1.764-0.773
		c-0.68-0.237-1.524-0.355-2.533-0.355c-1.278,0-2.386,0.232-3.323,0.695c-0.938,0.464-1.716,1.128-2.334,1.994
		c-0.618,0.865-1.077,1.917-1.376,3.153s-0.447,2.627-0.447,4.172c0,3.259,0.653,5.75,1.962,7.481
		c1.31,1.731,3.097,2.597,5.363,2.597c0.783,0,1.458-0.065,2.024-0.201c0.565-0.133,1.062-0.303,1.483-0.51
		c0.423-0.205,0.788-0.433,1.098-0.681c0.311-0.247,0.604-0.472,0.882-0.679c0.276-0.207,0.557-0.377,0.835-0.51
		c0.276-0.137,0.592-0.201,0.941-0.201c0.659,0,1.175,0.246,1.546,0.742l2.441,3.09c-0.906,1.051-1.875,1.922-2.906,2.613
		c-1.03,0.689-2.096,1.234-3.198,1.637c-1.103,0.401-2.221,0.681-3.354,0.836c-1.134,0.154-2.257,0.229-3.369,0.229
		c-1.959,0-3.813-0.364-5.563-1.097c-1.754-0.73-3.288-1.798-4.606-3.199c-1.32-1.4-2.365-3.123-3.138-5.162
		c-0.773-2.04-1.159-4.367-1.159-6.986c0-2.328,0.34-4.492,1.021-6.491c0.68-1.999,1.679-3.73,2.997-5.193
		c1.319-1.464,2.952-2.613,4.9-3.447c1.947-0.835,4.198-1.252,6.754-1.252c2.434,0,4.564,0.392,6.399,1.174
		c1.834,0.784,3.481,1.917,4.945,3.401L344.056,40.952z"/>
	<path fill="#39405A" d="M358.8,24.785c0,0.721-0.146,1.391-0.434,2.009s-0.675,1.165-1.159,1.638
		c-0.482,0.475-1.051,0.846-1.699,1.114c-0.649,0.268-1.346,0.401-2.087,0.401c-0.7,0-1.365-0.133-1.993-0.401
		c-0.629-0.268-1.181-0.639-1.654-1.114c-0.474-0.473-0.85-1.02-1.129-1.638c-0.277-0.618-0.417-1.288-0.417-2.009
		c0-0.721,0.14-1.396,0.417-2.025c0.279-0.629,0.655-1.18,1.129-1.654c0.475-0.474,1.025-0.844,1.654-1.113
		c0.628-0.267,1.293-0.401,1.993-0.401c0.741,0,1.438,0.134,2.087,0.401c0.648,0.269,1.217,0.639,1.699,1.113
		c0.484,0.474,0.871,1.025,1.159,1.654C358.655,23.389,358.8,24.064,358.8,24.785 M357.779,65.713h-8.531v-31.87h8.531V65.713z"/>
	<path fill="#39405A" d="M377.594,33.348c2.391,0,4.563,0.382,6.521,1.144c1.958,0.763,3.64,1.85,5.04,3.261
		c1.401,1.412,2.483,3.128,3.246,5.147c0.761,2.021,1.145,4.298,1.145,6.833c0,2.535-0.384,4.817-1.145,6.847
		c-0.763,2.03-1.845,3.756-3.246,5.178c-1.4,1.423-3.082,2.515-5.04,3.277c-1.958,0.762-4.131,1.143-6.521,1.143
		c-2.411,0-4.603-0.381-6.568-1.143c-1.969-0.763-3.653-1.854-5.054-3.277c-1.402-1.422-2.489-3.147-3.262-5.178
		c-0.773-2.028-1.159-4.312-1.159-6.847c0-2.534,0.386-4.813,1.159-6.833c0.771-2.019,1.858-3.735,3.262-5.147
		c1.399-1.411,3.085-2.498,5.054-3.261C372.991,33.73,375.183,33.348,377.594,33.348 M377.594,59.779
		c2.432,0,4.234-0.84,5.411-2.521c1.174-1.68,1.762-4.178,1.762-7.494c0-3.299-0.588-5.787-1.762-7.467
		c-1.177-1.679-2.979-2.519-5.411-2.519c-2.493,0-4.327,0.84-5.502,2.519c-1.174,1.68-1.763,4.168-1.763,7.467
		c0,3.316,0.589,5.814,1.763,7.494C373.267,58.939,375.101,59.779,377.594,59.779"/>
	<path fill="#FFFFFF" d="M421.891,20.86c3.07,0,5.724,0.36,7.96,1.082c2.236,0.721,4.075,1.726,5.518,3.013
		c1.442,1.288,2.51,2.819,3.2,4.591c0.689,1.773,1.035,3.699,1.035,5.78c0,2.206-0.361,4.225-1.081,6.059
		c-0.723,1.835-1.815,3.413-3.278,4.73c-1.463,1.318-3.308,2.345-5.532,3.076c-2.226,0.73-4.832,1.097-7.82,1.097h-5.873v15.426
		h-9.274V20.86H421.891z M421.891,43.178c2.905,0,5.033-0.7,6.383-2.102c1.35-1.401,2.025-3.317,2.025-5.75
		c0-1.112-0.17-2.127-0.511-3.044s-0.855-1.701-1.546-2.35c-0.689-0.649-1.562-1.148-2.611-1.499c-1.052-0.35-2.3-0.526-3.74-0.526
		h-5.873v15.271H421.891z"/>
	<path fill="#FFFFFF" d="M447.92,51.092c0.267,2.988,1.116,5.174,2.55,6.555c1.431,1.379,3.302,2.069,5.609,2.069
		c1.176,0,2.189-0.14,3.046-0.418c0.854-0.276,1.606-0.587,2.257-0.927c0.649-0.34,1.235-0.648,1.762-0.928
		c0.525-0.277,1.046-0.416,1.562-0.416c0.659,0,1.176,0.246,1.546,0.74l2.474,3.092c-0.907,1.051-1.907,1.922-2.999,2.613
		c-1.092,0.688-2.226,1.233-3.4,1.637c-1.174,0.401-2.358,0.682-3.555,0.836s-2.35,0.229-3.462,0.229
		c-2.227,0-4.303-0.364-6.229-1.098c-1.929-0.729-3.606-1.813-5.038-3.243c-1.434-1.436-2.563-3.21-3.386-5.335
		c-0.825-2.121-1.235-4.584-1.235-7.388c0-2.163,0.354-4.204,1.064-6.12c0.712-1.917,1.737-3.586,3.077-5.008
		c1.339-1.422,2.966-2.551,4.884-3.385c1.916-0.835,4.08-1.252,6.492-1.252c2.039,0,3.92,0.324,5.641,0.974
		c1.722,0.649,3.204,1.592,4.451,2.828c1.246,1.237,2.216,2.757,2.906,4.56c0.689,1.803,1.035,3.858,1.035,6.167
		c0,0.639-0.031,1.164-0.093,1.576c-0.063,0.412-0.165,0.742-0.311,0.988c-0.144,0.248-0.339,0.418-0.586,0.51
		c-0.248,0.094-0.567,0.141-0.96,0.141H447.92V51.092z M461.336,46.021c0-0.886-0.119-1.73-0.355-2.535
		c-0.237-0.804-0.613-1.515-1.129-2.133s-1.164-1.107-1.947-1.468c-0.783-0.36-1.721-0.541-2.813-0.541
		c-2.04,0-3.639,0.577-4.792,1.731c-1.154,1.154-1.906,2.803-2.257,4.945H461.336z"/>
	<path fill="#FFFFFF" d="M480.407,39.098c1.011-1.813,2.174-3.246,3.493-4.297c1.318-1.051,2.864-1.576,4.637-1.576
		c1.441,0,2.616,0.34,3.524,1.02l-0.557,6.306c-0.104,0.412-0.264,0.695-0.479,0.85c-0.216,0.155-0.511,0.232-0.881,0.232
		c-0.33,0-0.804-0.046-1.421-0.139c-0.619-0.093-1.196-0.14-1.731-0.14c-0.783,0-1.479,0.114-2.088,0.341
		c-0.606,0.227-1.147,0.546-1.622,0.958c-0.475,0.412-0.901,0.917-1.282,1.515c-0.382,0.598-0.738,1.277-1.066,2.04v19.506h-8.531
		V33.843h5.038c0.864,0,1.464,0.154,1.793,0.463c0.329,0.31,0.566,0.846,0.711,1.608L480.407,39.098z"/>
	<path fill="#FFFFFF" d="M513.608,40.396c-0.228,0.351-0.459,0.603-0.695,0.757c-0.236,0.155-0.562,0.232-0.974,0.232
		c-0.413,0-0.835-0.102-1.268-0.309c-0.435-0.206-0.918-0.428-1.453-0.665c-0.536-0.236-1.148-0.458-1.84-0.664
		c-0.69-0.206-1.488-0.309-2.396-0.309c-1.382,0-2.453,0.283-3.216,0.85s-1.144,1.314-1.144,2.241c0,0.639,0.217,1.175,0.648,1.607
		c0.434,0.433,1.005,0.81,1.716,1.13c0.711,0.318,1.521,0.617,2.426,0.896c0.907,0.278,1.841,0.584,2.798,0.912
		c0.959,0.329,1.892,0.711,2.8,1.145c0.904,0.435,1.715,0.974,2.426,1.622c0.711,0.649,1.282,1.434,1.716,2.352
		c0.434,0.916,0.648,2.023,0.648,3.322c0,1.545-0.283,2.973-0.85,4.28c-0.566,1.31-1.396,2.438-2.488,3.386
		c-1.094,0.947-2.452,1.69-4.082,2.227c-1.627,0.535-3.502,0.803-5.625,0.803c-1.094,0-2.175-0.098-3.245-0.293
		c-1.072-0.196-2.091-0.475-3.062-0.836c-0.969-0.359-1.875-0.775-2.72-1.252c-0.846-0.473-1.577-0.987-2.195-1.545l1.979-3.184
		c0.228-0.371,0.511-0.658,0.851-0.865c0.341-0.207,0.777-0.311,1.314-0.311c0.515,0,0.988,0.129,1.422,0.387
		c0.433,0.258,0.916,0.537,1.452,0.834c0.536,0.301,1.17,0.578,1.901,0.836c0.73,0.258,1.644,0.387,2.734,0.387
		c0.824,0,1.535-0.094,2.134-0.278c0.599-0.187,1.082-0.438,1.453-0.757c0.37-0.32,0.644-0.68,0.818-1.082s0.263-0.818,0.263-1.252
		c0-0.701-0.221-1.271-0.664-1.717c-0.443-0.442-1.021-0.828-1.73-1.158c-0.712-0.329-1.529-0.629-2.457-0.896
		c-0.929-0.267-1.871-0.565-2.829-0.896s-1.896-0.722-2.813-1.174c-0.917-0.455-1.73-1.026-2.441-1.718
		c-0.711-0.688-1.289-1.541-1.731-2.551c-0.442-1.009-0.663-2.234-0.663-3.678c0-1.318,0.256-2.571,0.771-3.756
		c0.516-1.184,1.288-2.23,2.318-3.137c1.029-0.907,2.313-1.628,3.848-2.164c1.535-0.536,3.313-0.804,5.334-0.804
		c2.267,0,4.328,0.371,6.183,1.113c1.854,0.742,3.379,1.711,4.574,2.906L513.608,40.396z"/>
	<path fill="#FFFFFF" d="M533.67,33.348c2.39,0,4.563,0.382,6.521,1.144c1.959,0.763,3.639,1.85,5.04,3.261
		c1.401,1.412,2.483,3.128,3.245,5.147c0.763,2.021,1.145,4.298,1.145,6.833c0,2.535-0.382,4.817-1.145,6.847
		c-0.762,2.03-1.844,3.756-3.245,5.178c-1.401,1.423-3.081,2.515-5.04,3.277c-1.957,0.762-4.132,1.143-6.521,1.143
		c-2.411,0-4.603-0.381-6.569-1.143c-1.968-0.763-3.652-1.854-5.053-3.277c-1.402-1.422-2.489-3.147-3.263-5.178
		c-0.772-2.028-1.159-4.312-1.159-6.847c0-2.534,0.387-4.813,1.159-6.833c0.772-2.019,1.859-3.735,3.263-5.147
		c1.399-1.411,3.085-2.498,5.053-3.261C529.068,33.73,531.259,33.348,533.67,33.348 M533.67,59.779c2.432,0,4.234-0.84,5.409-2.521
		c1.175-1.68,1.763-4.178,1.763-7.494c0-3.299-0.588-5.787-1.763-7.467c-1.175-1.679-2.979-2.519-5.409-2.519
		c-2.493,0-4.327,0.84-5.502,2.519c-1.176,1.68-1.763,4.168-1.763,7.467c0,3.316,0.587,5.814,1.763,7.494
		C529.343,58.939,531.177,59.779,533.67,59.779"/>
	<path fill="#FFFFFF" d="M561.059,37.552c0.638-0.618,1.303-1.185,1.993-1.701c0.689-0.514,1.423-0.958,2.192-1.329
		c0.775-0.37,1.608-0.658,2.506-0.865c0.896-0.206,1.87-0.31,2.923-0.31c1.729,0,3.265,0.3,4.604,0.897
		c1.34,0.598,2.468,1.433,3.385,2.504c0.918,1.072,1.608,2.349,2.072,3.833s0.695,3.112,0.695,4.885v20.247h-8.501V45.466
		c0-1.772-0.413-3.148-1.236-4.127c-0.825-0.979-2.04-1.469-3.647-1.469c-1.194,0-2.317,0.258-3.369,0.773
		c-1.053,0.515-2.053,1.237-2.998,2.164v22.906h-8.532v-31.87h5.255c1.071,0,1.783,0.494,2.134,1.483L561.059,37.552z"/>
	<path fill="#FFFFFF" d="M585.632,38.263c1.876-1.69,3.946-2.952,6.214-3.787c2.266-0.835,4.72-1.252,7.356-1.252
		c1.896,0,3.592,0.309,5.085,0.928c1.494,0.618,2.763,1.478,3.804,2.581c1.039,1.103,1.839,2.416,2.394,3.941
		c0.56,1.525,0.836,3.195,0.836,5.008v20.031h-3.895c-0.805,0-1.417-0.113-1.84-0.34s-0.769-0.7-1.035-1.422l-0.682-2.04
		c-0.804,0.7-1.581,1.319-2.333,1.854c-0.753,0.535-1.529,0.983-2.334,1.344c-0.804,0.361-1.665,0.635-2.582,0.82
		c-0.917,0.185-1.94,0.276-3.074,0.276c-1.401,0-2.681-0.187-3.833-0.556c-1.154-0.373-2.148-0.924-2.983-1.654
		c-0.834-0.732-1.479-1.645-1.932-2.735c-0.454-1.092-0.681-2.35-0.681-3.771c0-1.174,0.298-2.35,0.896-3.524
		c0.597-1.174,1.622-2.241,3.076-3.198c1.451-0.959,3.389-1.752,5.81-2.381c2.423-0.628,5.457-0.984,9.104-1.065v-1.64
		c0-1.998-0.423-3.467-1.268-4.405c-0.846-0.937-2.062-1.407-3.646-1.407c-1.177,0-2.154,0.14-2.938,0.418
		c-0.782,0.278-1.468,0.577-2.055,0.896c-0.588,0.32-1.14,0.618-1.654,0.896c-0.515,0.279-1.112,0.418-1.793,0.418
		c-0.598,0-1.097-0.15-1.5-0.448c-0.4-0.299-0.736-0.655-1.004-1.067L585.632,38.263z M603.005,52.391
		c-2.081,0.103-3.813,0.283-5.193,0.541c-1.381,0.258-2.478,0.592-3.292,1.004s-1.391,0.881-1.73,1.406
		c-0.339,0.525-0.512,1.098-0.512,1.717c0,1.234,0.348,2.112,1.037,2.627c0.689,0.517,1.654,0.772,2.891,0.772
		c1.422,0,2.652-0.253,3.693-0.757c1.041-0.506,2.076-1.293,3.106-2.365V52.391z"/>
	<rect x="616.203" y="19.624" fill="#FFFFFF" width="8.532" height="46.09"/>
</g>
</svg>
