<?xml version="1.0" encoding="utf-8"?>
<!-- Generator: Adobe Illustrator 16.0.0, SVG Export Plug-In . SVG Version: 6.00 Build 0)  -->
<!DOCTYPE svg PUBLIC "-//W3C//DTD SVG 1.1//EN" "http://www.w3.org/Graphics/SVG/1.1/DTD/svg11.dtd">
<svg version="1.1" id="Capa_1" xmlns="http://www.w3.org/2000/svg" xmlns:xlink="http://www.w3.org/1999/xlink" x="0px" y="0px"
	 width="141.732px" height="141.732px" viewBox="0 0 141.732 141.732" enable-background="new 0 0 141.732 141.732"
	 xml:space="preserve">
<g>
	<path fill="#5E59FA" d="M138.242,70.866c0-37.211-30.166-67.376-67.376-67.376C33.655,3.49,3.49,33.655,3.49,70.866
		s30.165,67.376,67.376,67.376C108.076,138.242,138.242,108.077,138.242,70.866"/>
	<path fill="#FFFFFF" d="M39.006,42.697c-0.926,0-1.676,0.75-1.676,1.676s0.75,1.677,1.676,1.677c0.925,0,1.675-0.751,1.675-1.677
		S39.931,42.697,39.006,42.697"/>
	<path fill="#FFFFFF" d="M47.306,44.375c0-0.926-0.75-1.676-1.675-1.676c-0.926,0-1.676,0.75-1.676,1.676s0.75,1.676,1.676,1.676
		C46.556,46.05,47.306,45.3,47.306,44.375"/>
	<path fill="#FFFFFF" d="M52.25,46.052c0.925,0,1.675-0.75,1.675-1.676c0-0.925-0.75-1.676-1.675-1.676
		c-0.925,0-1.676,0.751-1.676,1.676C50.573,45.302,51.324,46.052,52.25,46.052"/>
	<path fill="#FFFFFF" d="M85.875,72.503H57.77l-1.78-5.205c-0.131-0.384-0.49-0.641-0.895-0.641h-5.87
		c-0.523,0-0.946,0.423-0.946,0.945s0.423,0.947,0.946,0.947h5.194l6.034,17.652c0.131,0.383,0.491,0.641,0.895,0.641h20.092
		c0.399,0,0.756-0.251,0.891-0.629l4.434-12.447c0.175-0.492-0.081-1.033-0.573-1.208C86.089,72.522,85.982,72.503,85.875,72.503
		 M80.772,84.951H62.021l-3.607-10.555h26.116L80.772,84.951z"/>
	<path fill="#FFFFFF" d="M65.428,88.914c-2.437,0.001-4.412,1.977-4.412,4.413c0.001,2.438,1.977,4.413,4.413,4.413
		c2.437-0.001,4.412-1.977,4.412-4.413C69.839,90.89,67.864,88.917,65.428,88.914 M65.428,95.846c-1.392,0-2.52-1.129-2.52-2.521
		c0.001-1.393,1.13-2.521,2.521-2.52c1.392,0,2.52,1.129,2.52,2.521C67.948,94.718,66.82,95.845,65.428,95.846"/>
	<path fill="#FFFFFF" d="M78.193,88.914c-2.437,0-4.413,1.976-4.413,4.413c0,2.437,1.976,4.413,4.413,4.413s4.412-1.977,4.412-4.413
		C82.603,90.89,80.629,88.917,78.193,88.914 M78.193,95.846c-1.392,0-2.521-1.128-2.521-2.52c0-1.393,1.129-2.521,2.521-2.521
		s2.52,1.128,2.52,2.521C80.712,94.717,79.584,95.845,78.193,95.846"/>
	<path fill="#FFFFFF" d="M42.382,81.076l4.137-4.137c0.363-0.375,0.353-0.973-0.022-1.338c-0.367-0.354-0.949-0.354-1.316,0
		l-4.805,4.806c-0.37,0.369-0.37,0.969,0,1.338l4.817,4.817c0.369,0.369,0.968,0.369,1.338-0.001
		c0.369-0.369,0.369-0.967-0.001-1.338L42.382,81.076z"/>
	<path fill="#FFFFFF" d="M98.468,75.601c-0.375-0.363-0.974-0.354-1.337,0.022c-0.355,0.366-0.355,0.95,0,1.315l4.147,4.148
		l-4.137,4.136c-0.369,0.37-0.37,0.969,0,1.338c0.369,0.37,0.968,0.37,1.338,0.001l4.805-4.807c0.37-0.369,0.37-0.967,0-1.337
		L98.468,75.601z"/>
	<path fill="#FFFFFF" d="M112.888,56.15v-5.567c-0.001-0.201-0.066-0.397-0.187-0.558v-8.834c-0.003-2.413-1.958-4.369-4.371-4.371
		H34.884c-2.413,0.001-4.368,1.958-4.371,4.371v57.317c0.003,2.413,1.958,4.368,4.371,4.371h73.446
		c2.413-0.003,4.368-1.959,4.371-4.371V57.834c0.119-0.518,0.183-1.047,0.192-1.579C112.893,56.223,112.891,56.191,112.888,56.15
		 M111.003,56.252c-0.049,3.168-2.656,5.695-5.823,5.647c-3.133-0.05-5.647-2.603-5.647-5.735V51.53h11.465v4.635
		C110.996,56.195,110.998,56.223,111.003,56.252L111.003,56.252z M32.403,41.191c0.001-1.37,1.111-2.479,2.479-2.48h73.446
		c1.368,0.002,2.477,1.11,2.479,2.48v8.446H32.403V41.191z M97.638,56.285c-0.043,3.167-2.645,5.7-5.813,5.657
		c-3.153-0.044-5.68-2.624-5.657-5.777V51.53h11.465v4.635C97.633,56.2,97.638,56.241,97.638,56.285 M84.276,56.285
		c-0.083,3.166-2.718,5.666-5.885,5.582c-3.097-0.082-5.569-2.607-5.584-5.704v-4.635h11.464v4.635
		C84.271,56.2,84.273,56.241,84.276,56.285L84.276,56.285z M70.914,56.251c-0.049,3.167-2.656,5.695-5.823,5.646
		c-3.133-0.049-5.646-2.603-5.647-5.735v-4.635H70.91v4.635C70.909,56.194,70.911,56.223,70.914,56.251L70.914,56.251z
		 M57.552,56.283c-0.084,3.167-2.719,5.666-5.886,5.583c-3.095-0.082-5.567-2.606-5.584-5.703v-4.635h11.466v4.635
		c0,0.037,0.001,0.078,0.005,0.122L57.552,56.283z M44.19,56.251c-0.049,3.167-2.656,5.695-5.823,5.646
		c-3.133-0.049-5.647-2.603-5.647-5.735v-4.635h11.465v4.635C44.185,56.194,44.186,56.223,44.19,56.251L44.19,56.251z
		 M110.809,98.508c-0.002,1.368-1.111,2.478-2.479,2.479H34.884c-1.368-0.001-2.477-1.111-2.479-2.479V60.787
		c2.535,3.344,7.301,3.999,10.645,1.463c0.858-0.65,1.568-1.475,2.083-2.422c2.012,3.689,6.634,5.05,10.324,3.037
		c1.284-0.699,2.338-1.753,3.038-3.037c2.012,3.689,6.634,5.05,10.324,3.037c1.283-0.699,2.338-1.753,3.038-3.037
		c2.013,3.689,6.635,5.049,10.325,3.036c1.282-0.699,2.336-1.753,3.036-3.036c2.011,3.69,6.634,5.051,10.324,3.039
		c1.284-0.7,2.339-1.754,3.039-3.039c2.002,3.684,6.611,5.047,10.295,3.045c0.722-0.393,1.375-0.899,1.935-1.502L110.809,98.508z"/>
</g>
</svg>
