<?xml version="1.0" encoding="utf-8"?>
<!-- Generator: Adobe Illustrator 16.0.0, SVG Export Plug-In . SVG Version: 6.00 Build 0)  -->
<!DOCTYPE svg PUBLIC "-//W3C//DTD SVG 1.1//EN" "http://www.w3.org/Graphics/SVG/1.1/DTD/svg11.dtd">
<svg version="1.1" id="Capa_1" xmlns="http://www.w3.org/2000/svg" xmlns:xlink="http://www.w3.org/1999/xlink" x="0px" y="0px"
	 width="208px" height="205.51px" viewBox="0 0 208 205.51" enable-background="new 0 0 208 205.51" xml:space="preserve">
<g>
	<path fill="#E8E8E8" d="M16.228,74.167c12.348-38.001,47.76-63.728,87.716-63.728v23.056c-29.967,0-56.525,19.297-65.787,47.797
		L16.228,74.167z"/>
	<path fill="#E8E8E8" d="M41.366,87.592L9.927,77.377l1.545-4.755C24.529,32.438,61.69,5.439,103.943,5.439h5v33.056h-5
		c-27.886,0-52.413,17.82-61.032,44.342L41.366,87.592z M22.662,71l12.442,4.042c10.605-26.499,35.361-44.486,63.839-46.382V15.581
		C64.785,17.51,35.053,39.111,22.662,71z"/>
	<path fill="#37405D" d="M82.804,106.124c-4.249,0-8.267-5.115-8.267-10.525c0-5.04,3.477-8.695,8.267-8.695
		s8.265,3.655,8.265,8.695C91.068,100.911,86.976,106.124,82.804,106.124 M82.804,88.809c-3.744,0-6.36,2.792-6.36,6.79
		c0,4.351,3.151,8.618,6.36,8.618c3.089,0,6.36-4.429,6.36-8.618C89.164,91.601,86.548,88.809,82.804,88.809"/>
	<path fill="#37405D" d="M83.136,119.259c-2.062,0-4.117-0.147-6.152-0.441c-1.694-0.244-3.26-0.978-4.528-2.123
		c-1.278-1.176-2.155-2.663-2.543-4.308l-0.084-0.34c-0.781-3.252,0.403-6.671,3.019-8.721c1.307-1.027,2.745-1.838,4.277-2.413
		c0.491-0.182,1.042,0.065,1.227,0.56c0.185,0.492-0.063,1.04-0.558,1.225c-1.347,0.506-2.617,1.221-3.77,2.126
		c-2.029,1.596-2.949,4.25-2.346,6.77l0.086,0.344c0.302,1.283,0.983,2.436,1.976,3.347c0.979,0.887,2.196,1.457,3.515,1.646
		c3.686,0.531,7.439,0.56,11.154,0.084l0.938-0.141c0.518-0.081,1.011,0.267,1.097,0.786c0.086,0.517-0.265,1.009-0.786,1.095
		l-0.994,0.151C86.824,119.142,84.977,119.257,83.136,119.259"/>
	<path fill="#37405D" d="M93.1,105.795c-0.245,0-0.49-0.093-0.675-0.277c-0.113-0.114-0.222-0.214-0.347-0.303l-0.492-0.398
		c-1.155-0.899-2.45-1.626-3.836-2.149c-0.491-0.185-0.74-0.734-0.554-1.228c0.183-0.493,0.738-0.741,1.227-0.556
		c1.566,0.592,3.029,1.413,4.348,2.438l0.47,0.379c0.165,0.12,0.35,0.285,0.532,0.466c0.373,0.373,0.373,0.979,0,1.352
		C93.588,105.702,93.343,105.795,93.1,105.795"/>
	<path fill="#37405D" d="M124.604,106.124c-4.248,0-8.268-5.115-8.268-10.525c0-5.04,3.479-8.695,8.268-8.695
		c4.787,0,8.266,3.655,8.266,8.695C132.87,100.911,128.774,106.124,124.604,106.124 M124.604,88.809
		c-3.746,0-6.361,2.792-6.361,6.79c0,4.351,3.15,8.618,6.361,8.618c3.09,0,6.359-4.429,6.359-8.618
		C130.963,91.601,128.348,88.809,124.604,88.809"/>
	<path fill="#37405D" d="M114.327,105.884c-0.229,0-0.457-0.082-0.641-0.246c-0.389-0.354-0.422-0.956-0.07-1.346
		c0.328-0.36,0.666-0.679,1.035-0.966c1.32-1.04,2.762-1.851,4.281-2.415c0.494-0.18,1.043,0.067,1.225,0.562
		c0.184,0.494-0.068,1.042-0.563,1.226c-1.332,0.495-2.602,1.211-3.768,2.126c-0.281,0.222-0.543,0.465-0.793,0.745
		C114.842,105.777,114.584,105.884,114.327,105.884"/>
	<path fill="#37405D" d="M124.932,119.259c-2.059,0-4.111-0.147-6.145-0.441c-0.133-0.015-0.318-0.05-0.482-0.086
		c-0.514-0.116-0.84-0.624-0.725-1.138c0.113-0.512,0.623-0.841,1.139-0.726c0.098,0.022,0.209,0.046,0.311,0.059
		c3.709,0.537,7.457,0.566,11.166,0.088l0.42-0.057c3.016-0.387,5.367-2.76,5.729-5.771c0.271-2.287-0.684-4.584-2.484-5.99
		l-0.475-0.37c-1.148-0.908-2.438-1.631-3.83-2.159c-0.492-0.185-0.742-0.736-0.555-1.228c0.184-0.493,0.74-0.741,1.227-0.557
		c1.578,0.596,3.037,1.419,4.338,2.442l0.467,0.367c2.326,1.814,3.555,4.772,3.205,7.718c-0.467,3.881-3.496,6.94-7.369,7.437
		l-0.42,0.058C128.612,119.142,126.772,119.259,124.932,119.259"/>
	<path fill="#37405D" d="M103.644,107.974c-5.176,0-10.069-6.262-10.069-12.885c0-6.146,4.235-10.607,10.069-10.607
		c5.833,0,10.072,4.461,10.072,10.607C113.715,101.59,108.727,107.974,103.644,107.974 M103.644,86.39
		c-4.806,0-8.163,3.576-8.163,8.699c0,5.539,4.045,10.979,8.163,10.979c3.97,0,8.164-5.646,8.164-10.979
		C111.807,89.966,108.452,86.39,103.644,86.39"/>
	<path fill="#37405D" d="M104.027,124.347c-2.552,0-5.091-0.183-7.604-0.547c-2.063-0.292-3.974-1.19-5.522-2.603
		c-1.538-1.402-2.61-3.212-3.103-5.238l-0.106-0.44c-0.95-3.953,0.498-8.119,3.688-10.611c1.617-1.267,3.391-2.269,5.269-2.975
		c0.489-0.183,1.042,0.064,1.229,0.558c0.183,0.492-0.064,1.04-0.558,1.226c-1.696,0.639-3.3,1.543-4.763,2.692
		c-2.605,2.037-3.788,5.437-3.011,8.664l0.105,0.439c0.398,1.651,1.275,3.13,2.534,4.276c1.265,1.152,2.821,1.885,4.507,2.124
		c4.6,0.668,9.294,0.703,13.958,0.105l0.518-0.073c3.865-0.495,6.877-3.535,7.34-7.399c0.352-2.922-0.869-5.865-3.186-7.682
		l-0.58-0.457c-1.465-1.156-3.098-2.07-4.844-2.719c-0.496-0.181-0.746-0.729-0.566-1.225c0.184-0.491,0.732-0.744,1.227-0.562
		c1.938,0.716,3.742,1.729,5.367,3.009l0.576,0.455c2.834,2.223,4.33,5.83,3.898,9.41c-0.566,4.73-4.26,8.457-8.977,9.058
		l-0.516,0.074C108.616,124.201,106.318,124.347,104.027,124.347"/>
	<path fill="#5E59FA" d="M103.944,10.438c50.935,0,92.228,41.292,92.228,92.229c0,50.939-41.293,92.231-92.228,92.231
		c-50.938,0-92.23-41.292-92.23-92.231c0-9.677,1.523-19.294,4.515-28.5l21.929,7.125c-11.807,36.333,8.077,75.358,44.411,87.163
		c36.334,11.806,75.354-8.078,87.161-44.412c11.807-36.332-8.078-75.357-44.412-87.162c-6.9-2.245-14.115-3.387-21.373-3.387V10.438
		z"/>
	<path fill="#5E59FA" d="M103.944,199.899c-53.613,0-97.23-43.618-97.23-97.231c0-10.217,1.601-20.326,4.759-30.045l1.545-4.755
		l31.44,10.215l-1.545,4.755c-5.297,16.302-3.929,33.691,3.853,48.964c7.782,15.273,21.046,26.601,37.348,31.898
		c6.452,2.097,13.129,3.16,19.845,3.16c27.873,0.001,52.393-17.827,61.016-44.362c5.297-16.301,3.929-33.69-3.854-48.963
		s-21.046-26.602-37.349-31.898c-6.409-2.085-13.079-3.142-19.828-3.142h-5V5.438h5c53.612,0,97.228,43.617,97.228,97.229
		C201.172,156.281,157.556,199.899,103.944,199.899z M19.575,80.513c-1.9,7.228-2.861,14.659-2.861,22.155
		c0,48.099,39.131,87.231,87.23,87.231c48.098,0,87.228-39.132,87.228-87.231c0-46.419-36.449-84.486-82.229-87.088v13.083
		c6.092,0.41,12.1,1.57,17.92,3.464c18.841,6.122,34.172,19.215,43.167,36.868s10.576,37.752,4.453,56.594
		c-9.965,30.666-38.307,51.271-70.523,51.271c-0.002,0-0.001,0-0.003,0c-7.767,0-15.483-1.228-22.935-3.649
		c-18.843-6.122-34.174-19.216-43.168-36.869c-8.234-16.16-10.255-34.369-5.842-51.788L19.575,80.513z"/>
</g>
</svg>
