<?xml version="1.0" encoding="utf-8"?>
<!-- Generator: Adobe Illustrator 16.0.0, SVG Export Plug-In . SVG Version: 6.00 Build 0)  -->
<!DOCTYPE svg PUBLIC "-//W3C//DTD SVG 1.1//EN" "http://www.w3.org/Graphics/SVG/1.1/DTD/svg11.dtd">
<svg version="1.1" id="Capa_1" xmlns="http://www.w3.org/2000/svg" xmlns:xlink="http://www.w3.org/1999/xlink" x="0px" y="0px"
	 width="266.667px" height="97.333px" viewBox="0 0 266.667 97.333" enable-background="new 0 0 266.667 97.333"
	 xml:space="preserve">
<path fill="#FFFFFF" d="M262.093,10.333c-1.294-1.274-2.722-1.929-4.406-1.797c-2.179,0-4.531,1.56-7.122,4.396
	c-2.057,2.464-3.751,5.05-4.748,7.627c-0.536,1.419-1.429,3.502-2.348,6.46l-3.098,6.973c-0.789,1.57-1.422,4.139-2.066,7.645
	l-2.057,7.599v1.174l-0.152,0.906l-2.301,4.65l-2.072,2.7l-5.182,5.053l-2.579,1.56c-0.632,0-1.173,0.374-1.93,0.881
	c-0.644,0.522-1.177,0.786-1.683,0.928c-1.408,0.104-2.593-1.809-2.957-5.691l-0.401-1.552l-1.535-1.943
	c-1.67-1.696-3.114-2.326-4.415-2.174c-1.269,0.239-2.442,1.126-3.497,2.571l-4.37,7.354c-1.185,1.293-2.332,1.802-3.631,1.672
	c1.694-5.154,3.23-8.772,4.634-11.12c1.056-1.523,2.209-2.823,3.254-3.599l4.128-0.141l1.954,2.707
	c0.776,1.032,1.657,1.432,2.72,1.188c0.759-0.156,1.411-0.634,1.785-1.188c0.373-0.636,0.649-1.273,0.649-2.056
	c-0.109-1.416-1.023-2.978-2.435-4.517c-1.683-1.677-3.517-2.705-5.575-3.104c-2.31-0.236-4.66-0.125-6.72,0.669
	c-1.164,0.375-2.338,0.759-3.096,1.542c-0.512,0.249-0.79,0.641-1.162,1.019l-1.05,1.286c-0.887,0.398-1.571,1.035-2.328,2.341
	l-5.42,13.425c-0.39,1.311-0.241,2.475,0.255,3.376l1.035,2.845c0.265,0.774,0.679,1.428,1.024,2.057
	c1.055,1.154,2.345,1.938,3.77,2.215c3.086,0.618,6.208-0.654,9.42-3.374l5.436-4.257c0.25-0.111,0.653,0.248,1.038,1.152
	l0.395,1.293l1.136,1.17l3.628,2.847c0.924,0.634,1.945,0.893,2.988,0.893c1.92,0.155,3.87-0.378,5.673-1.271l2.181-1.296
	l1.966-1.707c1.029-0.635,1.655-0.881,2.323-0.881c0.125,0,0.361,0,0.515,0.246l0.132,0.635l1.017,9.706l1.66,7.091
	c0.797,1.939,1.972,3.483,3.621,4.654c1.7,1.306,3.507,1.954,5.458,1.954c1.263-1.182,1.263-2.985-0.122-5.563
	c-1.155-1.947-1.692-3.742-1.829-5.533l-0.383-15.896c-0.253-3.117,0-5.582,0.653-7.393c0.649-1.67,1.559-3.608,3.237-5.815
	l3.998-5.8l3.487-6.84l8.778-21.194c0.792-2.34,0.923-4.532,0.642-6.36C263.884,13.081,263.113,11.635,262.093,10.333
	 M250.336,27.157c0.371-1.556,0.77-2.594,1.013-3.235c0.925-1.676,2.466-3.611,4.657-5.684h0.378v1.16l-0.632,1.923l-5.288,13.323
	l-2.828,5.556c-0.297,1.054-0.822,1.814-1.194,2.084l-0.385,0.127l-0.134-0.276l-0.106-0.77l1.673-7.75
	c0.37-1.159,0.782-2.203,1.154-3.109L250.336,27.157z"/>
<path fill="#FFFFFF" d="M191.271,74.309l-2.079-2.439c-1.149-1.811-1.939-4.022-2.459-6.854l-0.901-7.76l-1.924-6.458
	c-0.792-1.306-2.082-2.314-3.773-2.976l-4.63-0.115l-2.48,1.529c-0.862,0.644-1.787,1.316-2.426,1.935
	c-0.528,0.663-1.044,1.569-1.561,2.86l-1.42,2.969c-0.649-0.396-1.038-1.033-1.038-2.075l0.148-1.169l-0.148-1.29l-2.315-6.183
	c-0.924-1.687-2.202-3.348-3.764-4.789c-1.669-1.275-3.593-2.313-5.548-2.701c-0.93-0.275-2.063-0.275-3.627,0l-3.104,0.257
	c-1.515,0.39-2.837,1.169-3.85,2.316l-2.738,4.005c-1.032,1.813-1.913,3.112-2.836,3.865c-0.646,0.546-1.288,1.427-1.943,2.465
	l-2.96,6.335l-1.546,2.704c-0.687,1.173-0.88,3.241-0.88,5.942c0,2.207,0.345,3.887,1.268,5.446
	c1.158,1.926,2.719,3.209,4.773,4.141c2.851,1.037,5.03,1.425,6.717,1.037c0.656-0.137,1.561-0.533,2.742-1.313l2.155-1.165
	c1.177-0.773,1.929-1.805,2.352-3.364c0.763-2.311,0.763-5.547,0.111-9.551c-0.633-2.587-1.009-4.536-1.166-5.812
	c-0.12-2.346,0.393-4.134,1.569-5.549l0.767-1.061c0.242-0.371,0.242-0.892,0-1.267l-0.519-1.042
	c-0.134-0.504,0.113-0.644,0.652-0.644c1.422-0.134,2.72,0.384,3.51,1.686c0.767,1.011,1.275,2.572,1.531,4.515l1.304,16.149
	c0.108,1.286,0.229,2.318,0.769,3.239c0.785,1.534,2.059,2.593,3.876,3.209c1.671,0.546,3.354,0.396,4.887-0.365
	c1.568-0.757,2.699-2.077,3.396-3.889l1.282-5.307c0.364-2.33,0.91-3.992,1.679-5.037l0.893-1.154l0.371-0.145l0.532,0.667
	c0.625,0.51,1.164,1.288,1.428,2.063c0.379,0.901,1.016,2.577,1.686,5.425c0.643,2.332,1.399,4.123,2.18,5.3
	c1.277,1.826,2.97,3.098,4.771,3.878c2.072,0.752,4.01,1.048,5.968,0.533V77.03L191.271,74.309z M143.072,55.574
	c1.403,0,1.941,1.557,1.811,4.637c-0.272,2.599-0.9,5.067-1.677,7.636c-0.539,1.042-0.927,1.837-1.308,2.08
	c-0.764,0.642-1.297,0.753-1.934,0.502c-0.634-0.127-0.912-0.639-0.912-1.659c-0.106-0.923,0-2.201,0.398-3.628l1.041-3.619
	C141.135,59.21,142.041,57.255,143.072,55.574"/>
<path fill="#FFFFFF" d="M42.916,11.383c-1.425-1.159-3.351-2.707-5.827-4.251c-1.409-0.91-3.61-1.943-6.695-2.98
	c-1.678-0.647-2.84-0.91-3.63-1.149l-3.617-0.537c-1.142-0.394-2.448-0.654-3.747-0.654h-3.757L7.002,3.126
	c-1.31,0.115-2.468,0.378-3.104,1.025C3.367,4.806,2.855,5.845,2.465,6.745C2.098,7.762,1.966,8.676,2.098,9.561
	c0.235,0.922,0.757,1.563,1.665,2.073c1.164,0.652,2.574,0.782,4.143,0.782L19.898,11l11.132,1.416
	c1.307,0.259,2.2,0.517,3.104,0.902c1.546,0.644,3.235,2.078,4.912,4.135c1.676,1.946,2.445,3.868,2.327,5.838
	c-0.252,1.919-1.176,3.584-3.127,5.283l-4.64,3.598c-2.302,1.443-3.999,2.086-5.287,2.086l0.896-2.205l0.524-2.195l0.249-5.034
	l0.91-2.198l0.276-2.193c0.13-1.032-0.144-2.193-0.78-3.495c-0.787-1.808-1.933-3.096-3.354-3.475l-2.476-0.144
	c-0.914,0.279-1.666,0.777-2.19,1.433c-1.022,1.029-1.56,2.702-1.806,4.794l-2.3,14.202c-0.539,1.815-1.179,2.985-2.239,3.477
	c-0.889,0.519-1.933-0.116-3.079-2.05l-1.316-1.95c-0.63-0.655-1.154-0.904-1.926-1.171c-1.559-0.245-2.567,0.119-3.371,1.31
	c-0.767,1.413-0.876,2.834-0.096,4.38c0.486,1.438,1.529,2.59,2.939,3.623c0.528,0.271,1.557,0.769,2.854,1.299l2.848,1.425
	c1.147,0.643,1.545,1.911,1.283,3.732c0,0.778-0.352,2.455-1.025,4.918l-4.267,28.429l-0.891,2.584
	c-0.4,0.897-0.274,1.819,0.386,2.581c0.898,1.28,2.443,1.925,4.367,2.079c2.07,0.103,3.533-0.51,4.385-2.079
	c0.778-1.042,1.181-2.581,1.448-4.531l0.637-7.081c0.266-3.132,0.659-5.832,1.169-8.151l1.797-7.903
	c0.393-2.441,0.675-4.912,0.675-6.837c0.243-2.471,0.399-4.008,0.881-5.041c0.523-1.418,1.972-2.458,4.012-3.238l6.978-2.185
	c1.529-0.638,3.48-1.931,6.058-3.753c2.349-1.682,4.019-3.354,5.205-4.646c2.56-3.233,3.206-7.105,1.926-11.646
	C48.727,17.598,46.407,14.232,42.916,11.383"/>
<path fill="#FFFFFF" d="M129.738,43.429c0.133-0.765-0.112-1.674-0.612-2.458c-0.521-0.771-1.174-1.417-1.971-1.791
	c-0.882-0.392-1.919-0.663-2.816-0.663c-0.914,0.142-1.814,0.388-2.995,0.918l-1.913,0.65c-0.663,0.375-1.031,0.643-1.168,0.643
	l-0.782,0.908l-1.037,0.379l-1.953,3.243l-0.637,0.637c-0.248,0.27-0.248,0.512-0.248,0.645l-0.536,1.416
	c-0.769,1.165-1.422,2.055-1.422,2.596c-0.105,0.765-0.105,1.801,0,2.829c0.278,2.083,0.915,4.138,2.206,6.204l3.627,5.574
	c1.553,2.174,2.206,4.254,1.95,5.925c-0.161,1.169-1.305,2.203-3.364,2.971l-4.653,0.255l-2.859-0.885
	c-1.149-0.276-1.935,0-2.73,0.63c-0.107,0.667-0.107,1.562,0,2.343l2.609,4.386c0.658,0.921,1.93,1.425,4.129,1.681
	c3.756,0.395,6.994,0,9.686-0.901c1.698-0.658,3.236-1.419,4.273-2.732c1.295-1.305,2.083-2.7,2.302-4.521
	c0.556-2.72-0.48-5.781-3.089-9.029l-2.696-4.159c-1.053-1.536-1.695-2.968-1.799-4.525c-0.282-2.187,0.104-3.989,1.388-5.667
	c0.675-1.05,2.079-2.215,4.157-3.607C128.716,46,129.738,44.731,129.738,43.429"/>
<path fill="#FFFFFF" d="M111.024,47.963c0.248-0.387,0.382-1.175,0-2.068c-0.272-1.298-0.66-1.961-1.034-2.194
	c-2.846-1.036-5.187-1.416-7.109-1.036c-1.574,0.142-3.241,1.036-4.917,2.594l-4.265,3.978l-3.487,4.412
	c-1.288,1.927-2.831,3.205-4.142,3.728l-0.902-2.312c-0.135-0.382-0.375-1.31-0.375-2.458c-0.139-1.561-0.799-2.826-1.951-3.749
	c-1.154-1.035-2.327-1.537-3.87-1.669c-1.535-0.266-2.864,0-3.854,0.634l-1.826,1.67l-1.432,1.931l-3.226,3.501
	c-1.289,1.281-3.349,3.886-6.598,7.879l-4.508,5.837c-1.807,2.042-3.242,2.823-4.648,2.444c-1.559-0.402-2.446-1.544-2.845-3.488
	c-0.271-1.942,0.124-3.215,1.286-4.276l10.047-5.021l4.553-3.126l2.197-2.055c0.26-2.071-0.146-3.996-1.422-6.062
	c-1.017-1.797-2.454-3.354-4.388-4.644c-1.955-1.321-3.875-1.947-5.948-2.211c-2.334-0.111-4.412,0.403-6.325,1.555
	c-3.743,2.334-6.482,5.951-8.014,10.605l-0.648,1.916l-0.414,0.646l-0.626,0.248H37.5l-1.56,0.403
	c-0.388,0.153-0.652,0.63-0.652,1.167c-0.13,0.92,0.11,1.81,0.54,2.699l2.049,2.344l1.672,1.534c0.529,0.527,0.784,1.429,1.039,2.98
	l1.312,2.854c1.919,4.271,4.116,7.116,6.711,8.372c3.232,1.699,6.467,2.091,9.44,1.048c2.176-0.628,4.51-2.176,6.815-4.654
	l5.831-6.973c2.332-2.824,4.533-4.776,6.74-5.945l0.907,5.159l0.233,3.755l-0.233,3.51c0,1.392,0.233,2.568,0.628,3.464
	c0.903,1.685,2.194,2.728,3.87,3.097c1.812,0.266,3.228-0.5,4.539-2.291l2.563-5.977l3.889-5.148l3.225-6.591
	c1.298-2.459,2.582-4.655,4.146-6.079c1.291-1.435,2.707-2.477,4.515-3.489l4.132-1.684L111.024,47.963z M60.487,48.081
	c0.254,0.775,0.134,1.41-0.134,2.059c-0.126,1.029-0.886,1.956-2.302,2.845l-5.692,3.619c-1.038,0.526-1.925,0.771-2.71,0.915
	l-0.635-0.144c-0.164-0.121-0.276-0.121-0.276-0.522l0.276-1.006c0.086-0.524,0.355-1.165,0.892-1.689l2.568-3.606
	c1.2-1.825,2.079-3.114,3.119-3.763c1.398-1.293,2.84-1.418,3.983-0.383C59.963,46.788,60.227,47.437,60.487,48.081"/>
</svg>
