<?xml version="1.0" encoding="utf-8"?>
<!-- Generator: Adobe Illustrator 16.0.0, SVG Export Plug-In . SVG Version: 6.00 Build 0)  -->
<!DOCTYPE svg PUBLIC "-//W3C//DTD SVG 1.1//EN" "http://www.w3.org/Graphics/SVG/1.1/DTD/svg11.dtd">
<svg version="1.1" id="Capa_1" xmlns="http://www.w3.org/2000/svg" xmlns:xlink="http://www.w3.org/1999/xlink" x="0px" y="0px"
	 width="141.732px" height="141.732px" viewBox="0 0 141.732 141.732" enable-background="new 0 0 141.732 141.732"
	 xml:space="preserve">
<g>
	<path fill="#FFFFFF" d="M138.242,70.866c0-37.21-30.165-67.376-67.376-67.376C33.656,3.49,3.49,33.656,3.49,70.866
		c0,37.211,30.166,67.376,67.376,67.376C108.077,138.242,138.242,108.077,138.242,70.866"/>
	<path fill="#5E59FA" d="M86.313,86.366c0.464,0,0.841-0.376,0.841-0.841c0-0.464-0.377-0.841-0.841-0.841H53.58
		c-0.465,0-0.841,0.377-0.841,0.841c0,0.465,0.376,0.841,0.841,0.841H86.313z"/>
	<path fill="#5E59FA" d="M92.45,91.571H47.441c-0.464,0-0.841,0.376-0.841,0.841s0.377,0.842,0.841,0.842H92.45
		c0.464,0,0.841-0.377,0.841-0.842S92.914,91.571,92.45,91.571"/>
	<path fill="#5E59FA" d="M74.213,103.316l-1.025,1.152l-5.019,5.646l-2.825-2.825l-0.28-0.28c-0.329-0.328-0.861-0.329-1.19,0
		c-0.328,0.329-0.328,0.86,0,1.188l3.736,3.736c0.158,0.157,0.372,0.246,0.595,0.246h0.024c0.232-0.006,0.45-0.107,0.604-0.28
		l6.637-7.464c0.308-0.347,0.277-0.879-0.07-1.188S74.522,102.971,74.213,103.316L74.213,103.316z"/>
	<path fill="#5E59FA" d="M69.945,98.47c-5.112,0-9.257,4.145-9.258,9.256c0,5.112,4.143,9.258,9.256,9.259
		c5.112,0.001,9.257-4.145,9.257-9.257v-0.001C79.195,102.617,75.054,98.477,69.945,98.47 M69.945,115.302
		c-4.184,0-7.576-3.391-7.577-7.574c0-4.184,3.391-7.575,7.575-7.576c4.183,0,7.575,3.39,7.576,7.573v0.002
		C77.514,111.908,74.126,115.296,69.945,115.302"/>
	<path fill="#5E59FA" d="M47.306,53.238c0.076,0.396,0.422,0.682,0.826,0.682h7.174L55.16,77.737
		c-0.002,0.463,0.372,0.842,0.836,0.845h0.005h27.893c0.464,0,0.841-0.376,0.841-0.841v-0.004L84.588,53.92h7.175
		c0.403,0,0.749-0.286,0.825-0.682l1.816-9.394c0.082-0.426-0.174-0.845-0.59-0.966l-16.037-4.675
		c-0.189,0.007-0.379-0.005-0.566-0.033c-0.248,0.001-0.483,0.111-0.641,0.303c-4.26,1.545-8.926,1.563-13.198,0.054
		c-0.157-0.224-0.413-0.356-0.685-0.356c-0.063,0.001-0.126,0.008-0.187,0.023c-0.125-0.026-0.255-0.022-0.378,0.01l-16.037,4.675
		c-0.417,0.121-0.672,0.54-0.59,0.966L47.306,53.238z M76.132,40.386c-0.746,2.209-3.234,3.839-6.187,3.839
		c-2.925,0-5.395-1.598-6.166-3.773c4.032,1.212,8.334,1.188,12.353-0.068V40.386z M61.936,40.009
		c0.571,3.329,3.939,5.897,8.009,5.897c4.069,0,7.436-2.568,8.007-5.898l14.651,4.271l-1.539,7.959H83.74
		c-0.465,0-0.841,0.376-0.841,0.84v0.006l0.147,23.817H56.844l0.146-23.817c0.003-0.465-0.371-0.844-0.836-0.846h-0.005h-7.323
		l-1.539-7.959L61.936,40.009z"/>
	<path fill="#5E59FA" d="M48.369,22.045c-0.424,0-0.767,0.345-0.767,0.768V25.4c0,0.424,0.343,0.767,0.767,0.767
		c0.423,0,0.767-0.343,0.767-0.767v-2.588C49.136,22.39,48.792,22.045,48.369,22.045"/>
	<path fill="#5E59FA" d="M48.369,28.604c-0.424,0-0.767,0.343-0.767,0.768v2.588c0,0.423,0.343,0.767,0.767,0.767
		c0.423,0,0.767-0.344,0.767-0.767v-2.588C49.136,28.947,48.792,28.604,48.369,28.604"/>
	<path fill="#5E59FA" d="M46.383,26.618h-2.589c-0.424,0-0.767,0.345-0.767,0.769c0,0.422,0.343,0.766,0.767,0.766h2.589
		c0.423,0,0.767-0.344,0.767-0.766C47.15,26.963,46.806,26.618,46.383,26.618"/>
	<path fill="#5E59FA" d="M52.943,26.618h-2.589c-0.424,0-0.767,0.345-0.767,0.769c0,0.422,0.343,0.766,0.767,0.766h2.589
		c0.423,0,0.767-0.344,0.767-0.766C53.71,26.963,53.366,26.618,52.943,26.618"/>
	<path fill="#5E59FA" d="M97.576,61.352c-0.423,0-0.767,0.343-0.767,0.768v2.588c0,0.423,0.344,0.767,0.767,0.767
		s0.767-0.344,0.767-0.767v-2.588C98.343,61.694,97.999,61.352,97.576,61.352"/>
	<path fill="#5E59FA" d="M97.576,67.911c-0.423,0-0.767,0.343-0.767,0.768v2.587c0,0.424,0.344,0.768,0.767,0.768
		s0.767-0.344,0.767-0.768v-2.587C98.343,68.254,97.999,67.911,97.576,67.911"/>
	<path fill="#5E59FA" d="M95.59,65.925h-2.589c-0.423,0-0.766,0.344-0.766,0.768c0,0.423,0.343,0.767,0.766,0.767h2.589
		c0.424,0,0.767-0.344,0.767-0.767C96.357,66.269,96.014,65.925,95.59,65.925"/>
	<path fill="#5E59FA" d="M102.15,65.925h-2.589c-0.424,0-0.767,0.344-0.767,0.768c0,0.423,0.343,0.767,0.767,0.767h2.589
		c0.423,0,0.767-0.344,0.767-0.767C102.917,66.269,102.573,65.925,102.15,65.925"/>
</g>
</svg>
