<?xml version="1.0" encoding="utf-8"?>
<!-- Generator: Adobe Illustrator 16.0.0, SVG Export Plug-In . SVG Version: 6.00 Build 0)  -->
<!DOCTYPE svg PUBLIC "-//W3C//DTD SVG 1.1//EN" "http://www.w3.org/Graphics/SVG/1.1/DTD/svg11.dtd">
<svg version="1.1" id="Capa_1" xmlns="http://www.w3.org/2000/svg" xmlns:xlink="http://www.w3.org/1999/xlink" x="0px" y="0px"
	 width="141.732px" height="141.732px" viewBox="0 0 141.732 141.732" enable-background="new 0 0 141.732 141.732"
	 xml:space="preserve">
<g>
	<path fill="#FFFFFF" d="M138.243,70.866c0-37.21-30.166-67.376-67.377-67.376C33.656,3.49,3.49,33.656,3.49,70.866
		c0,37.211,30.166,67.376,67.376,67.376C108.077,138.242,138.243,108.077,138.243,70.866"/>
	<path fill="#5E59FA" d="M50.752,51.067c-0.423,0-0.767,0.343-0.767,0.768v2.587c0,0.424,0.344,0.768,0.767,0.768
		c0.424,0,0.768-0.344,0.768-0.768v-2.587C51.52,51.41,51.176,51.067,50.752,51.067"/>
	<path fill="#5E59FA" d="M50.752,57.626c-0.423,0-0.767,0.345-0.767,0.769v2.587c0,0.424,0.344,0.767,0.767,0.767
		c0.424,0,0.768-0.343,0.768-0.767v-2.587C51.52,57.971,51.176,57.626,50.752,57.626"/>
	<path fill="#5E59FA" d="M48.768,55.641h-2.589c-0.424,0-0.768,0.345-0.768,0.768s0.344,0.767,0.768,0.767h2.589
		c0.423,0,0.767-0.344,0.767-0.767S49.191,55.641,48.768,55.641"/>
	<path fill="#5E59FA" d="M55.327,55.641h-2.589c-0.423,0-0.767,0.345-0.767,0.768s0.344,0.767,0.767,0.767h2.589
		c0.424,0,0.768-0.344,0.768-0.767S55.75,55.641,55.327,55.641"/>
	<path fill="#5E59FA" d="M98.736,100.61c-0.423,0-0.768,0.343-0.768,0.768v2.587c0,0.424,0.345,0.768,0.768,0.768
		c0.424,0,0.768-0.344,0.768-0.768v-2.587C99.503,100.953,99.16,100.61,98.736,100.61"/>
	<path fill="#5E59FA" d="M98.736,107.169c-0.423,0-0.768,0.345-0.768,0.769v2.587c0,0.424,0.345,0.768,0.768,0.768
		c0.424,0,0.768-0.344,0.768-0.768v-2.587C99.503,107.514,99.16,107.169,98.736,107.169"/>
	<path fill="#5E59FA" d="M96.751,105.184h-2.589c-0.424,0-0.768,0.344-0.768,0.768c0,0.423,0.344,0.767,0.768,0.767h2.589
		c0.423,0,0.767-0.344,0.767-0.767C97.518,105.527,97.174,105.184,96.751,105.184"/>
	<path fill="#5E59FA" d="M103.31,105.184h-2.589c-0.423,0-0.767,0.344-0.767,0.768c0,0.423,0.344,0.767,0.767,0.767h2.589
		c0.424,0,0.768-0.344,0.768-0.767C104.078,105.527,103.734,105.184,103.31,105.184"/>
	<path fill="none" stroke="#5E59FA" stroke-width="2" stroke-miterlimit="10" d="M110.65,87.146H30.458V40.814
		c0-3.305,2.679-5.982,5.983-5.982h68.226c3.304,0,5.982,2.678,5.982,5.982V87.146z"/>
	<path fill="none" stroke="#5E59FA" stroke-width="2" stroke-miterlimit="10" d="M114.518,93.383H28.061
		c-1.824,0-3.303-1.479-3.303-3.303v-2.925h93.063v2.925C117.821,91.904,116.342,93.383,114.518,93.383z"/>
	<path fill="#FFFFFF" d="M83.567,114.739H61.411c-2.825,0-5.115-2.289-5.115-5.114V65.464c0-2.825,2.29-5.115,5.115-5.115h22.156
		c2.825,0,5.114,2.29,5.114,5.115v44.161C88.681,112.45,86.392,114.739,83.567,114.739"/>
	<path fill="none" stroke="#5E59FA" stroke-width="2" stroke-miterlimit="10" d="M83.567,114.739H61.411
		c-2.825,0-5.115-2.289-5.115-5.114V65.464c0-2.825,2.29-5.115,5.115-5.115h22.156c2.825,0,5.114,2.29,5.114,5.115v44.161
		C88.681,112.45,86.392,114.739,83.567,114.739z"/>
	<path fill="#5E59FA" d="M74.357,108.615c0-1.089-0.883-1.972-1.972-1.972c-1.091,0-1.973,0.883-1.973,1.972
		s0.882,1.974,1.973,1.974C73.474,110.589,74.357,109.704,74.357,108.615"/>
</g>
</svg>
