<?xml version="1.0" encoding="utf-8"?>
<!-- Generator: Adobe Illustrator 16.0.0, SVG Export Plug-In . SVG Version: 6.00 Build 0)  -->
<!DOCTYPE svg PUBLIC "-//W3C//DTD SVG 1.1//EN" "http://www.w3.org/Graphics/SVG/1.1/DTD/svg11.dtd">
<svg version="1.1" id="Capa_1" xmlns="http://www.w3.org/2000/svg" xmlns:xlink="http://www.w3.org/1999/xlink" x="0px" y="0px"
	 width="141.732px" height="141.732px" viewBox="0 0 141.732 141.732" enable-background="new 0 0 141.732 141.732"
	 xml:space="preserve">
<g>
	<path fill="#5E59FA" d="M138.242,70.866c0-37.211-30.164-67.376-67.375-67.376C33.656,3.49,3.49,33.655,3.49,70.866
		c0,37.21,30.166,67.375,67.376,67.375C108.078,138.241,138.242,108.076,138.242,70.866"/>
	<path fill="#FFFFFF" d="M94.232,66.298c-2.591,0.001-4.691,2.103-4.691,4.692c-0.017,0.551,0.418,1.011,0.967,1.027
		c0.552,0.016,1.012-0.417,1.027-0.968c0-0.02,0-0.039,0-0.059c-0.001-0.37,0.074-0.736,0.223-1.075
		c0.594-1.366,2.182-1.993,3.548-1.4c0.53,0.23,0.973,0.626,1.262,1.127c0.276,0.476,0.888,0.637,1.364,0.36
		c0.476-0.276,0.638-0.888,0.361-1.363C97.45,67.195,95.905,66.303,94.232,66.298"/>
	<path fill="#FFFFFF" d="M107.71,68.038l-3.18-1.019c-0.103-0.035-0.18-0.117-0.213-0.219c-0.703-2.237-1.769-4.343-3.152-6.236
		c-0.533-0.73-1.109-1.427-1.727-2.089c0.416-2.01,0.617-4.058,0.602-6.111c-0.055-3.322-0.784-5.238-2.293-6.03
		c-0.87-0.456-2.906-1.523-13.432,3.295c-0.147,0.066-0.291,0.143-0.432,0.226c-0.558-0.143-1.122-0.277-1.682-0.399
		c-0.014,0-0.027,0-0.041-0.005c2.684-8.348-1.908-17.29-10.255-19.973c-8.348-2.683-17.29,1.909-19.973,10.255
		c-1.315,4.089-0.916,8.535,1.103,12.325c-5.614,3.255-9.82,8.478-11.804,14.657c-0.703-0.088-1.401-0.217-2.089-0.385
		c0.679-1.282,0.728-2.807,0.132-4.131c-0.77-1.647-2.547-2.578-4.34-2.271c-1.325,0.336-2.202,1.596-2.057,2.956
		c0.037,1.893,1.135,3.401,3.175,4.437c-0.538,0.58-1.122,1.114-1.748,1.6c-0.863,0.652-1.905,1.026-2.986,1.071
		c-0.551,0.021-0.98,0.484-0.959,1.035c0.02,0.531,0.453,0.953,0.985,0.96h0.027c1.522-0.055,2.989-0.586,4.193-1.519
		c0.909-0.696,1.735-1.493,2.464-2.374c0.89,0.255,1.799,0.445,2.717,0.567c-0.071,0.35-0.138,0.699-0.19,1.051l-0.231,2.238
		c0,0.02,0,0.039-0.004,0.06c-0.04,0.646-0.06,1.289-0.06,1.908c-0.087,4.572,1.121,9.078,3.484,12.994
		c2.143,3.399,5.116,6.197,8.639,8.133l1.447,7.52c0.337,1.777,1.89,3.063,3.699,3.065h5.336c1.809-0.003,3.361-1.288,3.699-3.065
		l0.612-3.232c3.433,0.287,6.887,0.223,10.307-0.191l0.648,3.426c0.338,1.777,1.891,3.063,3.698,3.065h5.336
		c1.81-0.002,3.362-1.289,3.7-3.067l1.509-7.992c4.174-2.164,7.665-5.443,10.087-9.475c0.027-0.052,0.073-0.094,0.128-0.117
		l5.124-1.64c2.184-0.694,3.664-2.724,3.658-5.015v-5.273C111.377,70.76,109.896,68.73,107.71,68.038 M37.233,65.688
		c-1.31-0.597-2.334-1.495-2.361-2.842c-0.017-0.845,0.379-0.941,0.527-0.976c0.085-0.02,0.172-0.029,0.26-0.029
		c0.784,0.052,1.479,0.521,1.82,1.229C37.826,63.931,37.733,64.906,37.233,65.688 M96.822,48.104
		c0.753,0.393,1.185,1.921,1.225,4.295c0.01,0.877-0.027,1.754-0.111,2.627c-0.717,4.058-2.412,5.036-2.41,5.036
		c-0.062,0.031-0.121,0.067-0.176,0.109c-1.127,0.87-3.76,0.928-6.197-0.479c-2.469-1.42-4.039-4.603-4.092-8.202
		c0.03-0.015,0.058-0.032,0.084-0.046C91.361,48.601,95.505,47.414,96.822,48.104 M67.045,30.692
		c7.666-0.002,13.883,6.212,13.884,13.879c0.002,3.653-1.438,7.159-4.006,9.758c-5.769-0.508-11.58,0.23-17.038,2.167
		c-0.045-0.042-0.094-0.079-0.145-0.111c-6.521-4.036-8.537-12.592-4.502-19.114C57.769,33.181,62.235,30.692,67.045,30.692
		 M109.373,78.325c0.003,1.423-0.917,2.685-2.273,3.114l-5.125,1.643c-0.527,0.173-0.971,0.534-1.246,1.015
		c-2.324,3.843-5.693,6.944-9.717,8.94c-0.269,0.143-0.458,0.398-0.514,0.697l-1.598,8.46c-0.158,0.836-0.89,1.442-1.739,1.442
		h-5.334c-0.851,0-1.58-0.606-1.739-1.441l-0.822-4.349c-0.099-0.525-0.592-0.879-1.121-0.804c-3.869,0.544-7.79,0.617-11.677,0.22
		c-0.517-0.052-0.988,0.297-1.087,0.807l-0.781,4.126c-0.159,0.836-0.889,1.442-1.74,1.442h-5.336
		c-0.851-0.001-1.582-0.608-1.739-1.444l-1.536-7.979c-0.057-0.292-0.241-0.544-0.501-0.688c-3.395-1.78-6.261-4.423-8.312-7.661
		c-2.165-3.602-3.269-7.742-3.185-11.942c0-0.579,0.02-1.182,0.058-1.787l0.223-2.173c0.935-6.384,5.358-12.581,11.553-16.203
		c0.984,1.384,2.184,2.602,3.555,3.605c-0.803,0.332-1.588,0.706-2.352,1.119c-0.473,0.282-0.629,0.896-0.347,1.368
		c0.272,0.456,0.853,0.619,1.323,0.372c0.113-0.063,11.49-6.302,24.999-3.175c0.534,0.136,1.077-0.188,1.214-0.72
		c0.137-0.534-0.187-1.077-0.721-1.214c-0.014-0.003-0.029-0.007-0.043-0.01c-0.803-0.185-1.596-0.334-2.381-0.463
		c0.846-1.028,1.559-2.16,2.119-3.367c0.1,0.065,0.211,0.112,0.326,0.138c0.43,0.094,0.859,0.205,1.289,0.313
		c0.121,4.21,2.066,7.961,5.088,9.702c1.49,0.869,3.179,1.338,4.904,1.364c1.221,0.043,2.426-0.302,3.44-0.986
		c0.688-0.44,1.269-1.033,1.692-1.732c0.484,0.533,0.939,1.091,1.365,1.672c1.254,1.715,2.219,3.623,2.859,5.649
		c0.225,0.721,0.786,1.287,1.504,1.52l3.18,1.018c1.356,0.431,2.276,1.691,2.273,3.115V78.325z"/>
	<path fill="#FFFFFF" d="M63.181,48.024c-0.534,0-0.982,0.705-0.982,1.219c0,1.046,1.794,2.478,4.444,2.52v0.663
		c0.038,0.306,0.314,0.525,0.62,0.491c0.321,0,0.642-0.234,0.642-0.491v-0.726c2.282-0.134,4.024-2.093,3.89-4.376
		c0-0.009-0.001-0.019-0.002-0.027c0-2.906-2.03-3.843-3.888-4.53v-4.338c1.495,0.108,2.051,0.791,2.564,0.791
		c0.642,0,0.941-0.812,0.941-1.218c0-1.047-2.051-1.496-3.504-1.539v-0.577c0-0.256-0.321-0.491-0.643-0.491
		c-0.306-0.032-0.582,0.186-0.619,0.491v0.62c-2.031,0.214-4.06,1.282-4.06,3.975c0,2.734,2.137,3.504,4.06,4.188v5.022
		C64.464,49.521,63.886,48.024,63.181,48.024 M67.777,45.14c1.047,0.448,1.881,1.047,1.881,2.394
		c0.047,1.097-0.786,2.035-1.881,2.116V45.14z M64.721,40.267c0-1.11,0.855-1.645,2.051-1.794v3.89
		C65.638,41.935,64.72,41.487,64.721,40.267L64.721,40.267z"/>
	<path fill="#FFFFFF" d="M55.347,65.092c-0.551-0.001-0.997,0.445-0.998,0.995v0.002v2.774c-0.016,0.55,0.418,1.009,0.969,1.026
		c0.55,0.015,1.01-0.418,1.026-0.969c0.001-0.019,0.001-0.038,0-0.057v-2.774C56.344,65.539,55.898,65.092,55.347,65.092"/>
	<path fill="#FFFFFF" d="M55.347,72.122c-0.551,0-0.998,0.446-0.998,0.998v2.773c-0.016,0.551,0.418,1.011,0.969,1.026
		c0.55,0.017,1.01-0.416,1.026-0.968c0.001-0.019,0.001-0.039,0-0.059V73.12C56.344,72.569,55.898,72.122,55.347,72.122"/>
	<path fill="#FFFFFF" d="M53.221,69.994h-2.774c-0.551,0.017-0.985,0.476-0.969,1.025c0.015,0.529,0.44,0.954,0.969,0.969h2.774
		c0.551-0.015,0.984-0.474,0.969-1.024C54.175,70.433,53.749,70.009,53.221,69.994"/>
	<path fill="#FFFFFF" d="M60.253,69.994h-2.774c-0.551-0.016-1.01,0.418-1.026,0.97c-0.016,0.551,0.418,1.01,0.969,1.024
		c0.019,0.001,0.038,0.001,0.057,0h2.774c0.551,0.016,1.01-0.418,1.026-0.969c0.016-0.55-0.418-1.009-0.969-1.025
		C60.291,69.993,60.272,69.993,60.253,69.994"/>
</g>
</svg>
