<?xml version="1.0" encoding="utf-8"?>
<!-- Generator: Adobe Illustrator 16.0.0, SVG Export Plug-In . SVG Version: 6.00 Build 0)  -->
<!DOCTYPE svg PUBLIC "-//W3C//DTD SVG 1.1//EN" "http://www.w3.org/Graphics/SVG/1.1/DTD/svg11.dtd">
<svg version="1.1" id="Capa_1" xmlns="http://www.w3.org/2000/svg" xmlns:xlink="http://www.w3.org/1999/xlink" x="0px" y="0px"
	 width="151.333px" height="117.333px" viewBox="0 0 151.333 117.333" enable-background="new 0 0 151.333 117.333"
	 xml:space="preserve">
<g>
	<path fill="#6160F6" d="M140.906,2.175H73.744c-4.748,0.006-8.596,3.853-8.602,8.601v42.633H48.73V24.787
		c-0.004-2.96-2.402-5.357-5.362-5.362H7.694c-2.96,0.005-5.357,2.403-5.361,5.362v35.676c0.004,2.958,2.401,5.357,5.361,5.361
		h4.819l11.184,7.803c0.766,0.535,1.82,0.349,2.356-0.418c0.196-0.281,0.303-0.617,0.305-0.962l0.044-6.427h7.281v35.104
		c0.007,3.293,2.674,5.961,5.966,5.968h20.036l0.054,7.759c0.006,0.936,0.768,1.689,1.703,1.684
		c0.343-0.002,0.677-0.107,0.958-0.304l13.096-9.137h5.7c3.294-0.006,5.962-2.675,5.968-5.968V86.538h20.009l0.092,12.736
		c0.007,0.934,0.771,1.687,1.705,1.679c0.326-0.002,0.646-0.099,0.918-0.279l21.45-14.139h9.57c4.748-0.006,8.596-3.853,8.602-8.601
		V10.776C149.504,6.027,145.655,2.18,140.906,2.175 M24.721,62.435c-0.931,0-1.687,0.751-1.692,1.681l-0.033,4.89l-8.98-6.267
		c-0.284-0.198-0.622-0.304-0.969-0.304H7.694c-1.093-0.001-1.977-0.887-1.978-1.979V24.781c0.001-1.091,0.885-1.975,1.978-1.976
		h35.674c1.091,0.002,1.976,0.885,1.978,1.976v35.676c-0.001,1.092-0.886,1.978-1.978,1.979H24.721z M83.777,100.923
		c-0.001,1.425-1.156,2.58-2.582,2.58h-6.232c-0.347,0-0.685,0.106-0.969,0.305l-10.893,7.6l-0.043-6.224
		c-0.006-0.931-0.762-1.681-1.691-1.681H39.649c-1.425-0.003-2.579-1.157-2.58-2.582V65.819h6.298
		c2.96-0.003,5.357-2.401,5.362-5.361v-3.662h32.465c1.425,0.001,2.58,1.156,2.582,2.581L83.777,100.923z M82.462,53.549V39.821
		h8.047v22.546h-3.352v-2.988C87.153,56.575,85.201,54.15,82.462,53.549 M146.122,77.938c-0.004,2.878-2.337,5.211-5.217,5.215
		h-10.076c-0.331,0.001-0.654,0.098-0.931,0.28l-19.272,12.703l-0.082-11.304c-0.008-0.93-0.763-1.679-1.692-1.68H87.162V65.753
		h5.044c0.289-0.003,0.571-0.078,0.822-0.222c0.413,0.111,0.821,0.242,1.221,0.396l4.139,1.609c2.32,0.905,4.791,1.369,7.282,1.367
		h19.485c3.053,0.001,5.526-2.472,5.528-5.523c0-0.82-0.182-1.632-0.534-2.373c2.346-0.698,3.955-2.854,3.958-5.302v-0.814
		c0.001-0.951-0.243-1.883-0.71-2.71c1.891-0.931,3.09-2.854,3.092-4.961v-0.817c0.002-1.106-0.33-2.188-0.953-3.103
		c1.526-1.032,2.44-2.755,2.442-4.598v-0.761c-0.004-3.066-2.486-5.551-5.553-5.555l-17.387-0.023
		c-0.983-0.002-1.792-0.774-1.84-1.756l1.193-9.937c0.009-0.067,0.013-0.135,0.013-0.202c0-4.074-2.001-6.628-5.354-6.829
		c-1.938-0.128-3.842,0.549-5.265,1.87c-1.289,1.203-2.031,2.881-2.055,4.645c-0.451,3.181-1.228,6.307-2.317,9.329
		c-1.115,3.014-2.896,6.54-5.526,8.572c-0.034-0.907-0.778-1.624-1.686-1.625H80.765c-0.934,0-1.691,0.757-1.691,1.69v15.28H68.524
		V10.776c0.004-2.879,2.338-5.212,5.217-5.215h67.161c2.879,0.003,5.212,2.336,5.216,5.215L146.122,77.938z M115.036,35.75
		l17.39,0.022c1.198,0.002,2.168,0.972,2.17,2.17v0.761c-0.002,1.198-0.972,2.169-2.17,2.17h-1.461
		c-0.935,0-1.692,0.758-1.692,1.693s0.758,1.693,1.692,1.693c1.183,0.001,2.142,0.96,2.143,2.142v0.817
		c-0.001,1.182-0.96,2.141-2.143,2.142h-2.382c-0.935,0-1.693,0.758-1.693,1.693c0,0.934,0.759,1.691,1.693,1.691
		c1.182,0.002,2.142,0.96,2.142,2.144v0.815c0,1.184-0.96,2.143-2.142,2.144h-3.425c-0.934,0-1.692,0.757-1.692,1.691
		c0,0.937,0.759,1.693,1.692,1.693c1.185,0,2.144,0.959,2.144,2.143c0,1.185-0.959,2.145-2.144,2.145h-19.485
		c-2.073,0.002-4.126-0.384-6.056-1.138l-4.139-1.609c-0.517-0.199-1.043-0.37-1.578-0.514V42.028
		c9.081-4.418,11.119-20.799,11.21-21.556c0.008-0.067,0.012-0.132,0.012-0.199c-0.004-0.871,0.356-1.704,0.993-2.298
		c0.745-0.678,1.734-1.023,2.74-0.955c0.588,0.035,2.141,0.129,2.17,3.353l-1.195,9.95c-0.008,0.068-0.013,0.134-0.013,0.201
		c0.002,2.884,2.336,5.223,5.219,5.232V35.75z"/>
	<path fill="#6160F6" d="M77.094,83.447l-10.734-0.015l1.157-5.993l9.442,0.012c0.935,0,1.692-0.758,1.692-1.691
		c0-0.937-0.758-1.694-1.692-1.694l-8.793-0.01l1.854-9.593c0.195-0.914-0.387-1.814-1.301-2.012
		c-0.914-0.195-1.814,0.387-2.012,1.301c-0.004,0.022-0.009,0.047-0.013,0.068L64.72,74.05l-6.103-0.008l1.851-9.578
		c0.157-0.922-0.461-1.798-1.382-1.955c-0.896-0.153-1.752,0.426-1.942,1.313L55.17,74.038l-11.381-0.015
		c-0.934,0-1.691,0.758-1.691,1.693c0,0.934,0.758,1.691,1.691,1.691l10.735,0.016l-1.161,5.986l-9.442-0.012
		c-0.935,0-1.692,0.757-1.692,1.691s0.758,1.692,1.692,1.692l8.795,0.012l-1.853,9.593c-0.178,0.919,0.423,1.806,1.341,1.982
		c0.106,0.021,0.214,0.031,0.322,0.031c0.81-0.001,1.506-0.576,1.66-1.371l1.977-10.23l6.103,0.009l-1.85,9.579
		c-0.177,0.916,0.424,1.804,1.341,1.981c0.918,0.177,1.806-0.424,1.982-1.342l1.974-10.214l11.38,0.015
		c0.935,0,1.692-0.758,1.692-1.692s-0.758-1.692-1.692-1.692L77.094,83.447z M56.811,83.418l1.158-5.993l6.103,0.008l-1.157,5.994
		L56.811,83.418z"/>
	<path fill="#6160F6" d="M32.832,29.667c-3.017,0.066-5.795,1.654-7.382,4.221c-1.588-2.567-4.366-4.154-7.383-4.221
		c-5.088,0.007-9.21,4.131-9.215,9.218c0,0.049,0.002,0.099,0.006,0.147c0.019,1.029,0.209,2.048,0.563,3.014
		c0.02,0.059,0.039,0.115,0.06,0.174c2.101,6.425,11.043,12.931,12.057,13.652c0.715,0.518,1.457,0.996,2.225,1.432
		c0.233,0.128,0.473,0.243,0.719,0.346c0.616,0.287,1.327,0.287,1.944,0c0.243-0.102,0.48-0.217,0.711-0.346
		c0.768-0.436,1.51-0.913,2.224-1.432c1.016-0.723,9.963-7.229,12.061-13.653c0.021-0.06,0.044-0.126,0.075-0.221
		c0.344-0.95,0.528-1.951,0.547-2.962v-0.151C42.038,33.799,37.918,29.676,32.832,29.667 M38.659,38.963
		c-0.011,0.641-0.127,1.272-0.346,1.874l-0.068,0.202c-0.013,0.033-0.024,0.067-0.036,0.103c-1.229,3.814-6.467,8.882-10.813,11.974
		c-0.607,0.442-1.238,0.851-1.89,1.224l-0.059,0.031l-0.061-0.032c-0.651-0.374-1.283-0.782-1.891-1.224
		c-4.345-3.09-9.582-8.161-10.813-11.973c-0.01-0.034-0.038-0.115-0.05-0.15l-0.05-0.144c-0.22-0.601-0.336-1.235-0.345-1.874
		l-0.006-0.087c0.003-3.22,2.611-5.829,5.831-5.833c4.035,0,5.759,4.973,5.775,5.017c0.229,0.692,0.874,1.16,1.603,1.161h0.005
		c0.728,0.002,1.375-0.461,1.609-1.15c0.017-0.049,1.74-5.021,5.777-5.021c3.195-0.003,5.796,2.566,5.832,5.761
		C38.663,38.849,38.661,38.917,38.659,38.963L38.659,38.963z"/>
</g>
</svg>
